<svg width="185" height="66" viewBox="0 0 185 66" fill="none" xmlns="http://www.w3.org/2000/svg">
<path fill-rule="evenodd" clip-rule="evenodd" d="M109.724 47.2812H119.236V10.6193H109.724V47.2812Z" fill="#34414A"/>
<path fill-rule="evenodd" clip-rule="evenodd" d="M37.377 47.2804H46.8904V0.618271H37.377V47.2804Z" fill="#34414A"/>
<path fill-rule="evenodd" clip-rule="evenodd" d="M109.734 8.08446H119.247V0.618271H109.734V8.08446Z" fill="#34414A"/>
<path fill-rule="evenodd" clip-rule="evenodd" d="M97.6704 11.9287V10.6194H88.2207V47.2814H97.7321V29.6274C97.7321 20.4908 101.567 19.3194 104.909 19.3194H107.23V9.81674H104.909C102.239 9.81674 99.75 10.5536 97.6704 11.9287Z" fill="#34414A"/>
<path fill-rule="evenodd" clip-rule="evenodd" d="M153.868 10.6193H141.255L131.499 20.8686V10.6193H121.987V47.2812H131.499V34.4784L141.819 47.2812H154.145L137.712 27.4027L153.868 10.6193Z" fill="#34414A"/>
<path fill-rule="evenodd" clip-rule="evenodd" d="M75.9629 32.8235C75.4206 34.3379 74.5455 35.6276 73.4174 36.6038C72.3587 37.3981 70.8411 38.2554 68.8884 38.5626C68.5492 38.6018 68.2038 38.6228 67.8507 38.6228C65.355 38.6228 63.3987 37.7116 62.0878 36.8306C59.9102 35.0986 58.5187 32.2994 58.5187 29.0838C58.5187 25.927 59.7196 23.2663 61.6912 21.5623C62.7499 20.7666 64.2661 19.9101 66.2203 19.6035C66.5587 19.5658 66.9055 19.5441 67.2565 19.5441C69.7523 19.5441 71.7106 20.4552 73.0194 21.3349C74.3318 22.3783 75.3533 23.8087 75.9629 25.4819C76.3644 26.5918 76.59 27.8045 76.59 29.0838C76.59 30.4323 76.3665 31.6898 75.9629 32.8235ZM75.9641 13.0541C73.5763 11.8581 70.8507 11.1898 67.9108 11.1898C67.7966 11.1898 67.6817 11.194 67.5675 11.1968C67.4259 11.1919 67.2858 11.1898 67.1422 11.1898C62.3455 11.1898 57.9096 13.0331 54.6516 16.3809C51.4153 19.7071 49.6328 24.2187 49.6328 29.0844C49.6328 39.2861 57.1873 46.977 67.2003 46.977C67.3159 46.977 67.4287 46.9735 67.5415 46.9721C67.6845 46.9749 67.8246 46.977 67.9682 46.977C70.8192 46.977 73.5392 46.3227 75.9641 45.0896V47.2814H85.4762V29.0844V10.6201H75.9641V13.0541Z" fill="#34414A"/>
<path fill-rule="evenodd" clip-rule="evenodd" d="M174.759 32.8235C174.216 34.3379 173.343 35.6276 172.215 36.6038C171.155 37.3981 169.639 38.2554 167.685 38.5626C167.346 38.6018 167 38.6228 166.649 38.6228C164.151 38.6228 162.196 37.7116 160.885 36.8306C158.707 35.0986 157.316 32.2994 157.316 29.0838C157.316 25.927 158.516 23.2663 160.488 21.5623C161.547 20.7666 163.063 19.9101 165.019 19.6035C165.355 19.5658 165.7 19.5441 166.054 19.5441C168.55 19.5441 170.508 20.4552 171.818 21.3349C173.128 22.3783 174.152 23.8087 174.759 25.4819C175.161 26.5918 175.386 27.8045 175.386 29.0838C175.386 30.4323 175.164 31.6898 174.759 32.8235ZM174.759 10.6201V13.0541C172.372 11.8581 169.645 11.1898 166.705 11.1898C166.589 11.1898 166.476 11.194 166.364 11.1968C166.223 11.1919 166.081 11.1898 165.938 11.1898C161.141 11.1898 156.705 13.0331 153.448 16.3809C150.212 19.7071 148.43 24.2187 148.43 29.0844C148.43 39.2861 155.98 46.977 165.995 46.977C166.111 46.977 166.224 46.9735 166.337 46.9721C166.479 46.9749 166.62 46.977 166.764 46.977C169.613 46.977 172.336 46.3227 174.759 45.0896V47.2814H184.272V29.0844V10.6201H174.759Z" fill="#34414A"/>
<path fill-rule="evenodd" clip-rule="evenodd" d="M18.3992 38.3087C16.7562 38.3087 15.3415 37.9224 14.1813 37.4074C11.146 35.8377 9.0959 32.4997 9.0959 28.5465C9.0959 22.8886 12.8556 18.7829 18.0384 18.7829C19.6814 18.7829 21.096 19.1698 22.2535 19.6849C23.5623 20.3609 24.6876 21.3686 25.5438 22.6101L33.6146 18.4274C30.475 13.4217 24.979 10.2327 18.4574 10.2327C18.3782 10.2327 18.2976 10.2355 18.217 10.2376C18.1189 10.2355 18.0201 10.2327 17.9192 10.2327C13.0105 10.2327 8.47022 12.1186 5.1351 15.547C1.8231 18.9501 0 23.5667 0 28.5465C0 38.9882 7.72892 46.8603 17.9781 46.8603C18.0587 46.8603 18.1386 46.8582 18.2191 46.8554C18.3186 46.8582 18.4167 46.8603 18.5176 46.8603C23.4271 46.8603 27.9666 44.9737 31.3004 41.5453C32.612 40.201 33.6847 38.6614 34.5094 36.9882L25.8058 34.2338C24.2385 36.7503 21.5893 38.3087 18.3992 38.3087Z" fill="#34414A"/>
<path fill-rule="evenodd" clip-rule="evenodd" d="M14.6744 62.6042C14.7753 63.53 15.6546 64.141 16.8787 64.141C18.0376 64.141 18.8811 63.53 18.8811 62.6875C18.8811 61.9632 18.3753 61.5181 17.2234 61.2214L16.1234 60.9366C14.5434 60.5335 13.8427 59.8393 13.8427 58.6755C13.8427 57.2514 15.0906 56.2549 16.8731 56.2549C18.5778 56.2549 19.8137 57.2633 19.8614 58.6993H18.7922C18.6969 57.7798 17.9542 57.2157 16.8366 57.2157C15.7254 57.2157 14.9533 57.7916 14.9533 58.6279C14.9533 59.2752 15.4283 59.6608 16.5928 59.9638L17.491 60.2011C19.2672 60.6461 19.9861 61.3284 19.9861 62.5566C19.9861 64.1235 18.7501 65.1025 16.7778 65.1025C14.9589 65.1025 13.6998 64.1179 13.5996 62.6042H14.6744Z" fill="#34414A"/>
<path fill-rule="evenodd" clip-rule="evenodd" d="M22.2433 60.6831C22.2433 62.7902 23.3426 64.1191 25.0956 64.1191C26.848 64.1191 27.9473 62.7902 27.9473 60.6831C27.9473 58.5704 26.848 57.2415 25.0956 57.2415C23.3426 57.2415 22.2433 58.5704 22.2433 60.6831ZM29.047 60.6822C29.047 63.4002 27.5259 65.1036 25.096 65.1036C22.6661 65.1036 21.145 63.4002 21.145 60.6822C21.145 57.9649 22.6661 56.2552 25.096 56.2552C27.5259 56.2552 29.047 57.9649 29.047 60.6822Z" fill="#34414A"/>
<path fill-rule="evenodd" clip-rule="evenodd" d="M30.6187 64.9608V56.3973H35.8245V57.3589H31.6886V60.3022H35.4847V61.2519H31.6886V64.9608H30.6187Z" fill="#34414A"/>
<path fill-rule="evenodd" clip-rule="evenodd" d="M39.5149 64.9608V57.3589H36.7529V56.3973H43.3475V57.3589H40.5841V64.9608H39.5149Z" fill="#34414A"/>
<path fill-rule="evenodd" clip-rule="evenodd" d="M47.5002 64.9608H46.4906L44.1553 56.3973H45.2714L46.9894 63.3877H47.0371L48.9681 56.3973H50.0492L51.9802 63.3877H52.0271L53.7444 56.3973H54.8613L52.526 64.9608H51.5164L49.5377 58.1664H49.4781L47.5002 64.9608Z" fill="#34414A"/>
<path fill-rule="evenodd" clip-rule="evenodd" d="M57.0485 61.6027H59.8294L58.4568 57.6978H58.4211L57.0485 61.6027ZM60.1441 62.511H56.734L55.8715 64.9617H54.749L57.9097 56.3983H58.9677L62.1283 64.9617H61.0052L60.1441 62.511Z" fill="#34414A"/>
<path fill-rule="evenodd" clip-rule="evenodd" d="M64.4207 60.6288H66.5303C67.6297 60.6288 68.254 60.0354 68.254 58.985C68.254 57.9584 67.5883 57.3474 66.482 57.3474H64.4207V60.6288ZM64.4217 64.961H63.3525V56.3983H66.626C68.2781 56.3983 69.3593 57.4074 69.3593 58.9497C69.3593 60.1429 68.7118 61.068 67.6363 61.4067L69.6206 64.961H68.3671L66.5314 61.5733H64.4217V64.961Z" fill="#34414A"/>
<path fill-rule="evenodd" clip-rule="evenodd" d="M76.2558 64.9608H70.9448V56.3973H76.2558V57.3589H72.014V60.1063H76.0365V61.0559H72.014V63.9993H76.2558V64.9608Z" fill="#34414A"/>
<path fill-rule="evenodd" clip-rule="evenodd" d="M101.07 64.9592H102.14V56.3957H101.07V64.9592Z" fill="#34414A"/>
<path fill-rule="evenodd" clip-rule="evenodd" d="M104.045 64.9608V56.3973H105.084L109.778 63.121H109.832V56.3973H110.89V64.9608H109.85L105.156 58.2609H105.103V64.9608H104.045Z" fill="#34414A"/>
<path fill-rule="evenodd" clip-rule="evenodd" d="M112.799 64.9608V56.3973H113.838L118.532 63.121H118.587V56.3973H119.644V64.9608H118.604L113.91 58.2609H113.857V64.9608H112.799Z" fill="#34414A"/>
<path fill-rule="evenodd" clip-rule="evenodd" d="M122.317 60.6818C122.317 62.7889 123.417 64.1178 125.169 64.1178C126.922 64.1178 128.022 62.7889 128.022 60.6818C128.022 58.5691 126.922 57.2402 125.169 57.2402C123.417 57.2402 122.317 58.5691 122.317 60.6818ZM129.119 60.6822C129.119 63.4002 127.598 65.1036 125.168 65.1036C122.739 65.1036 121.219 63.4002 121.219 60.6822C121.219 57.9649 122.739 56.2552 125.168 56.2552C127.598 56.2552 129.119 57.9649 129.119 60.6822Z" fill="#34414A"/>
<path fill-rule="evenodd" clip-rule="evenodd" d="M132.874 64.9608L129.714 56.3973H130.838L133.386 63.6613H133.421L135.97 56.3973H137.094L133.932 64.9608H132.874Z" fill="#34414A"/>
<path fill-rule="evenodd" clip-rule="evenodd" d="M139.16 61.6017H141.941L140.568 57.6968H140.533L139.16 61.6017ZM142.256 62.5099H138.846L137.984 64.9606H136.861L140.021 56.3972H141.079L144.241 64.9606H143.116L142.256 62.5099Z" fill="#34414A"/>
<path fill-rule="evenodd" clip-rule="evenodd" d="M146.504 64.9608V57.3589H143.742V56.3973H150.338V57.3589H147.574V64.9608H146.504Z" fill="#34414A"/>
<path fill-rule="evenodd" clip-rule="evenodd" d="M151.709 64.9592H152.779V56.3957H151.709V64.9592Z" fill="#34414A"/>
<path fill-rule="evenodd" clip-rule="evenodd" d="M155.452 60.6817C155.452 62.7888 156.552 64.1178 158.304 64.1178C160.057 64.1178 161.155 62.7888 161.155 60.6817C161.155 58.569 160.057 57.2401 158.304 57.2401C156.552 57.2401 155.452 58.569 155.452 60.6817ZM162.255 60.6822C162.255 63.4002 160.734 65.1036 158.304 65.1036C155.874 65.1036 154.353 63.4002 154.353 60.6822C154.353 57.9649 155.874 56.2552 158.304 56.2552C160.734 56.2552 162.255 57.9649 162.255 60.6822Z" fill="#34414A"/>
<path fill-rule="evenodd" clip-rule="evenodd" d="M163.831 64.9608V56.3973H164.87L169.564 63.121H169.617V56.3973H170.675V64.9608H169.635L164.942 58.2609H164.888V64.9608H163.831Z" fill="#34414A"/>
<path fill-rule="evenodd" clip-rule="evenodd" d="M89.7306 65.3817H87.1669V61.9156H83.9082V59.4278H87.1669V55.9778H89.7306V59.4278H92.9887V61.9156H89.7306V65.3817Z" fill="#34414A"/>
</svg>
