<?xml version="1.0" encoding="utf-8"?>
<!-- Generator: Adobe Illustrator 22.0.0, SVG Export Plug-In . SVG Version: 6.00 Build 0)  -->
<svg version="1.1" id="Layer_1" xmlns="http://www.w3.org/2000/svg" xmlns:xlink="http://www.w3.org/1999/xlink" x="0px" y="0px"
	 viewBox="0 0 400 100" style="enable-background:new 0 0 400 100;" xml:space="preserve">
<style type="text/css">
	.st0{fill:#1CA2FF;}
	.st1{fill:#F2575F;}
</style>
<g>
	<path class="st0" d="M71.5,27.2L63,24.1c-1.4,1.7-3.9,2.5-6.1,1.7c-2.2-0.8-3.6-2.9-3.6-5.2c0,0-4.5-1.6-5.2-1.9
		c-0.7-0.3-1.2-0.3-0.8,0.7c0.3,0.8,13,35.8,13,35.8c1,2.7,1.7,2.5,2.5,0.2l9.6-26.3C72.7,28.3,72.3,27.5,71.5,27.2z M59.7,38
		c-0.3,0.8-1.1,1.1-1.9,0.9c-0.8-0.3-1.1-1.1-0.9-1.9c0.3-0.8,1.1-1.1,1.9-0.9C59.6,36.4,60,37.3,59.7,38z M64.9,39.9
		c-0.3,0.8-1.1,1.1-1.9,0.9c-0.8-0.3-1.1-1.1-0.9-1.9c0.3-0.8,1.1-1.1,1.9-0.9C64.7,38.3,65.1,39.1,64.9,39.9z"/>
	<path class="st1" d="M40.9,17.5l-10.7,3.9c0,2.8-1.7,5.5-4.5,6.5c-2.8,1-5.8,0.1-7.6-2.1L7.3,29.7C6.4,30,5.9,31.1,6.2,32
		l16.3,44.8c0.3,0.9,1.4,1.4,2.3,1.1L35.6,74c0-2.8,1.7-5.5,4.5-6.5c2.8-1,5.8-0.1,7.6,2.1l10.7-3.9c0.9-0.3,1.4-1.4,1.1-2.3
		L43.2,18.6C42.9,17.6,41.8,17.1,40.9,17.5z M18.4,46.4c-1.2,0.8-2.7,0.1-2.9-1.3c-0.1-0.7,0.2-1.3,0.8-1.7c1.2-0.8,2.7-0.1,2.9,1.3
		C19.3,45.4,19,46,18.4,46.4z M24.8,44.1c-1.2,0.8-2.7,0.1-2.9-1.3c-0.1-0.7,0.2-1.3,0.8-1.7c1.2-0.8,2.7-0.1,2.9,1.3
		C25.7,43,25.4,43.7,24.8,44.1z M31.2,41.7c-1.2,0.8-2.7,0.1-2.9-1.3c-0.1-0.7,0.2-1.3,0.8-1.7c1.2-0.8,2.7-0.1,2.9,1.3
		C32.1,40.7,31.8,41.4,31.2,41.7z M37.6,39.4c-1.2,0.8-2.7,0.1-2.9-1.3c-0.1-0.7,0.2-1.3,0.8-1.7c1.2-0.8,2.7-0.1,2.9,1.3
		C38.5,38.4,38.2,39,37.6,39.4z M44,37.1c-1.2,0.8-2.7,0.1-2.9-1.3c-0.1-0.7,0.2-1.3,0.8-1.7c1.2-0.8,2.7-0.1,2.9,1.3
		C44.9,36,44.6,36.7,44,37.1z"/>
	<path class="st0" d="M115.4,70.2c-2,0.3-4.4,0.9-11.7,0.9c-8,0-14.2-2.2-14.2-12.6V36.9c0-10.5,6.2-12.6,14.2-12.6
		c7.3,0,9.7,0.6,11.7,0.9c0.9,0.1,1.2,0.4,1.2,1.3v3.9c0,0.7-0.6,1.2-1.2,1.2h-12.6c-3.6,0-4.9,1.2-4.9,5.3v6.7h16.7
		c0.7,0,1.2,0.6,1.2,1.2v4.4c0,0.7-0.6,1.2-1.2,1.2H97.9v8c0,4.1,1.3,5.3,4.9,5.3h12.6c0.7,0,1.2,0.6,1.2,1.2v3.9
		C116.6,69.7,116.3,70,115.4,70.2z"/>
	<path class="st0" d="M148.1,70.5h-5.7c-0.7,0-1.2-0.6-1.2-1.3V49.1c0-5.4-0.5-6.9-5.2-6.9c-2.1,0-4.4,0.9-7,2.2v24.8
		c0,0.7-0.6,1.3-1.2,1.3h-5.7c-0.7,0-1.2-0.6-1.2-1.3V37c0-0.7,0.6-1.2,1.2-1.2h5.4c0.7,0,1.2,0.6,1.2,1.2v1.3c3.6-2.3,5.9-3,10-3
		c8.9,0,10.7,6,10.7,13.8v20.1C149.3,69.9,148.8,70.5,148.1,70.5z"/>
	<path class="st0" d="M171.5,70.6c-1.5,0.2-2.8,0.4-4.2,0.4c-7,0-9.8-1.5-9.8-9.8V41.9l-5.8-0.9c-0.7-0.1-1.2-0.6-1.2-1.2V37
		c0-0.7,0.6-1.2,1.2-1.2h5.8v-5.1c0-0.7,0.6-1.1,1.2-1.2l5.7-1c0.1,0,0.2,0,0.2,0c0.6,0,1,0.3,1,0.9v6.4h5.6c0.7,0,1.2,0.6,1.2,1.2
		v3.6c0,0.7-0.6,1.2-1.2,1.2h-5.6v19.4c0,3.1,0.2,3.5,2.4,3.5h3.3c0.8,0,1.3,0.3,1.3,0.9v3.9C172.7,70.1,172.3,70.5,171.5,70.6z"/>
	<path class="st0" d="M193.5,43.2c-3.3,0-5.9,0.9-8.5,2.2v23.9c0,0.7-0.6,1.3-1.2,1.3H178c-0.7,0-1.2-0.6-1.2-1.3V37
		c0-0.7,0.6-1.2,1.2-1.2h5.4c0.7,0,1.2,0.6,1.2,1.2v2.2c3-2.3,6.4-3,8.8-3c0.7,0,1.2,0.6,1.2,1.2v4.4
		C194.7,42.6,194.1,43.2,193.5,43.2z"/>
	<path class="st0" d="M221.7,70.5h-5.2c-0.7,0-1.2-0.6-1.2-1.2v-1c-2.8,1.7-5.7,2.7-8.7,2.7c-5.1,0-10.7-2-10.7-10.3v-0.2
		c0-7,4.3-10.7,15-10.7h3.9v-2.7c0-4-1.8-5-5.4-5c-3.9,0-8,0.2-10.1,0.5c-0.1,0-0.2,0-0.3,0c-0.6,0-1.1-0.2-1.1-1v-3.9
		c0-0.7,0.4-1.1,1.2-1.3c2.5-0.5,6-1,10.3-1c8.8,0,13.6,3.9,13.6,11.8v22.2C222.9,70,222.4,70.5,221.7,70.5z M214.8,55.2h-3.9
		c-5.6,0-6.8,1.8-6.8,5.2v0.2c0,3,1.4,3.8,4.4,3.8c2.2,0,4.5-0.7,6.3-1.7V55.2z"/>
	<path class="st0" d="M254.1,69.4c-3.8,1-8.4,1.6-12.4,1.6c-9.9,0-14.7-5.9-14.7-15.5v-4.7c0-9.6,4.8-15.5,14.7-15.5
		c1.5,0,3.6,0.1,5.9,0.4V24.8c0-0.7,0.6-1.2,1.2-1.2h5.7c0.7,0,1.2,0.6,1.2,1.2v42.9C255.7,68.7,255.5,69.1,254.1,69.4z M247.6,42.4
		c-1.7-0.2-4.4-0.4-5.9-0.4c-5.3,0-6.6,3.8-6.6,8.8v4.7c0,5.1,1.3,8.8,6.6,8.8c2.2,0,4.7-0.2,5.9-0.4V42.4z"/>
	<path class="st0" d="M285.1,70.5h-5.2c-0.7,0-1.2-0.6-1.2-1.2v-1c-2.8,1.7-5.7,2.7-8.7,2.7c-5.1,0-10.7-2-10.7-10.3v-0.2
		c0-7,4.3-10.7,15-10.7h3.9v-2.7c0-4-1.8-5-5.4-5c-3.9,0-8,0.2-10.1,0.5c-0.1,0-0.2,0-0.3,0c-0.6,0-1.1-0.2-1.1-1v-3.9
		c0-0.7,0.4-1.1,1.2-1.3c2.5-0.5,6-1,10.3-1c8.8,0,13.6,3.9,13.6,11.8v22.2C286.4,70,285.8,70.5,285.1,70.5z M278.2,55.2h-3.9
		c-5.6,0-6.8,1.8-6.8,5.2v0.2c0,3,1.4,3.8,4.4,3.8c2.2,0,4.5-0.7,6.3-1.7V55.2z"/>
	<path class="st1" d="M322.3,31.6h-12.6c-3.6,0-4.9,1.2-4.9,5.3v6.7h16.7c0.7,0,1.2,0.6,1.2,1.2v4.4c0,0.7-0.6,1.2-1.2,1.2h-16.7
		v18.9c0,0.7-0.6,1.2-1.2,1.2h-6c-0.7,0-1.2-0.6-1.2-1.2V36.9c0-10.5,6.2-12.6,14.2-12.6c7.3,0,9.7,0.6,11.7,0.9
		c0.9,0.1,1.2,0.4,1.2,1.3v3.9C323.6,31,323,31.6,322.3,31.6z"/>
	<path class="st1" d="M350.9,70.5h-5.2c-0.7,0-1.2-0.6-1.2-1.2v-1c-2.8,1.7-5.7,2.7-8.7,2.7c-5.1,0-10.7-2-10.7-10.3v-0.2
		c0-7,4.3-10.7,15-10.7h3.9v-2.7c0-4-1.8-5-5.4-5c-3.9,0-8,0.2-10.1,0.5c-0.1,0-0.2,0-0.3,0c-0.6,0-1.1-0.2-1.1-1v-3.9
		c0-0.7,0.4-1.1,1.2-1.3c2.5-0.5,6-1,10.3-1c8.8,0,13.6,3.9,13.6,11.8v22.2C352.2,70,351.6,70.5,350.9,70.5z M344,55.2h-3.9
		c-5.6,0-6.8,1.8-6.8,5.2v0.2c0,3,1.4,3.8,4.4,3.8c2.2,0,4.5-0.7,6.3-1.7V55.2z"/>
	<path class="st1" d="M383.9,70.5h-5.7c-0.7,0-1.2-0.6-1.2-1.3V49.1c0-5.4-0.5-6.9-5.2-6.9c-2.1,0-4.4,0.9-7,2.2v24.8
		c0,0.7-0.6,1.3-1.2,1.3h-5.7c-0.7,0-1.2-0.6-1.2-1.3V37c0-0.7,0.6-1.2,1.2-1.2h5.4c0.7,0,1.2,0.6,1.2,1.2v1.3c3.6-2.3,5.9-3,10-3
		c8.9,0,10.7,6,10.7,13.8v20.1C385.1,69.9,384.6,70.5,383.9,70.5z"/>
</g>
</svg>
