<svg xmlns="http://www.w3.org/2000/svg" id="Layer_2" data-name="Layer 2" viewBox="0 0 642.6 116.6"><defs><style>      .cls-1 {        fill: #f26119;      }    </style></defs><g id="Layer_1-2" data-name="Layer 1"><g><g><path class="cls-1" d="M627.66,88.94c-8.2,1.04-15.13-5.89-14.09-14.09.71-5.59,5.22-10.11,10.82-10.82,8.2-1.04,15.13,5.89,14.09,14.09-.71,5.59-5.22,10.11-10.82,10.82Z"></path><path class="cls-1" d="M124.3,88.94c-9.61,0-17.66-3.67-23.3-10.61-5.02-6.18-7.78-14.52-7.78-23.5s2.76-17.22,7.78-23.39c5.64-6.93,13.7-10.6,23.3-10.6,11.01,0,16.95,4.27,20.46,7.48l.49.44,1.17-5.74c.1-.47.5-.8.98-.8h16.58c.55,0,1,.45,1,1v63.44c0,.55-.45,1-1,1h-16.65c-.49,0-.91-.36-.99-.85l-2.14-14.09c-.07-.49-.49-.85-.99-.85h-1.52l.05.42c.51,4.19-.56,7.8-3.16,10.73-3.23,3.64-8.7,5.9-14.29,5.9ZM129.61,38.16c-9.22,0-15.66,6.85-15.66,16.67s6.44,16.67,15.66,16.67,15.66-6.85,15.66-16.67-6.44-16.67-15.66-16.67Z"></path><path class="cls-1" d="M217.88,87.68c-.55,0-1-.45-1-1v-38.67c0-6.17-3.63-9.85-9.72-9.85-3.5,0-8.96,2.34-12.68,7.48l-.07.1v40.94c0,.55-.45,1-1,1h-17.72c-.55,0-1-.45-1-1V23.22c0-.55.44-1,.99-1l16.65-.11c.5,0,.92.36,1,.85l2.14,14.08c.07.49.49.85.99.85h1.48v-.37c0-11.52,9.08-16.68,18.07-16.68,5.58,0,10.65,1.8,14.26,5.08,4.14,3.76,6.34,9.39,6.34,16.27v44.48c0,.55-.45,1-1,1h-17.72Z"></path><path class="cls-1" d="M344.59,88.94c-9.61,0-17.66-3.67-23.3-10.61-5.02-6.18-7.78-14.52-7.78-23.5s2.76-17.22,7.78-23.39c5.64-6.93,13.7-10.6,23.3-10.6,11.01,0,16.95,4.27,20.46,7.48l.49.44,1.17-5.74c.1-.47.5-.8.98-.8h16.58c.55,0,1,.45,1,1v63.44c0,.55-.45,1-1,1h-16.65c-.49,0-.91-.36-.99-.85l-2.14-14.09c-.07-.49-.49-.85-.99-.85h-1.52l.05.42c.51,4.19-.56,7.8-3.16,10.73-3.23,3.64-8.7,5.9-14.29,5.9ZM349.9,38.16c-9.22,0-15.66,6.85-15.66,16.67s6.44,16.67,15.66,16.67,15.66-6.85,15.66-16.67-6.44-16.67-15.66-16.67Z"></path><path class="cls-1" d="M485.31,88.94c-9.61,0-17.66-3.67-23.3-10.61-5.02-6.18-7.78-14.52-7.78-23.5s2.76-17.22,7.78-23.39c5.64-6.93,13.7-10.6,23.3-10.6,11.01,0,16.95,4.27,20.46,7.48l.49.44,1.17-5.74c.1-.47.5-.8.98-.8h16.58c.55,0,1,.45,1,1v63.44c0,.55-.45,1-1,1h-16.65c-.49,0-.91-.36-.99-.85l-2.14-14.09c-.07-.49-.49-.85-.99-.85h-1.52l.05.42c.51,4.19-.56,7.8-3.16,10.73-3.23,3.64-8.7,5.9-14.28,5.9ZM490.61,38.16c-9.22,0-15.66,6.85-15.66,16.67s6.44,16.67,15.66,16.67,15.66-6.85,15.66-16.67-6.44-16.67-15.66-16.67Z"></path><path class="cls-1" d="M578.89,87.68c-.55,0-1-.45-1-1v-38.67c0-6.17-3.63-9.85-9.72-9.85-3.5,0-8.96,2.34-12.68,7.48l-.07.1v40.94c0,.55-.45,1-1,1h-17.72c-.55,0-1-.45-1-1V23.22c0-.55.44-1,.99-1l16.65-.11c.5,0,.92.36,1,.85l2.14,14.08c.07.49.49.85.99.85h1.48v-.37c0-11.52,9.08-16.68,18.07-16.68,5.58,0,10.65,1.8,14.26,5.08,4.14,3.76,6.34,9.39,6.34,16.27v44.48c0,.55-.45,1-1,1h-17.72Z"></path><path class="cls-1" d="M620.18,55.24l-.22-12.96c-.01-.61-.56-1.07-1.16-.97l-11.18,1.83c-.7.11-1.29-.51-1.14-1.2l9.17-41.16c.1-.46.51-.78.98-.78h17.77c.64,0,1.12.59.98,1.22l-5.61,24.84c-.15.68.43,1.31,1.12,1.21l10.56-1.55c.75-.11,1.35.63,1.08,1.34l-10.72,28.51c-.15.39-.52.65-.94.65h-9.7c-.55,0-.99-.44-1-.98Z"></path></g><path class="cls-1" d="M306.66,23.07l-8.92-10.29c-.33-.38-.89-.46-1.31-.18l-13.78,9.15-.16-.04c-2.25-.56-4.73-.87-6.98-.87-9.5,0-17.49,2.79-23.11,8.08-4.9,4.61-7.71,11.01-7.71,17.57,0,5.69,1.89,10.98,5.47,15.3l.21.26-.23.24c-3.03,3.16-4.57,7.2-4.57,11.99,0,4.44,1.61,7.95,4.92,10.7l.37.31-.39.28c-3.83,2.76-6.03,6.93-6.03,11.44,0,6.02,3.28,11.07,9.48,14.63,5.57,3.2,13.11,4.96,21.22,4.96,14.73,0,30.57-6.25,30.57-19.96,0-7.29-3.48-12.45-10.34-15.35-6.29-2.66-14.21-2.97-19.61-2.97-7.18,0-9.71-2.86-10.57-5.25-1.17-3.26.17-7.44,2.38-10.26h1.22c-.75,3.1-.76,8.92,9.42,9.31.35.02.72.03,1.09.03,7.99,0,14.71-2.25,19.42-6.5,4.98-4.5,7.61-11.2,7.61-19.4,0-6.09-2.47-11.92-6.96-16.41l-.32-.32,7.42-4.95c.5-.33.6-1.03.2-1.49ZM266.46,90.76l.12-.07.14.02c2.58.42,5.08.72,7.51,1,6.92.81,12.38,1.44,12.38,4.68,0,2.48-5.78,3.78-11.49,3.78s-11.61-1.26-11.61-4.79c0-1.86,1.02-3.45,2.96-4.61ZM275.5,55.83c-7.89,0-11.49-4.78-11.49-9.22s3.95-9.09,11.49-9.09,11.49,4.71,11.49,9.09-3.6,9.22-11.49,9.22Z"></path><path class="cls-1" d="M453.11,3.92h-56.5c-.55,0-1,.45-1,1v81.52c0,.55.44.99.99,1l17.72.22c.56,0,1.01-.44,1.01-1v-25.01c0-14.52,10.81-14.52,22.26-14.52h3.25s7.22,0,7.22,0c.55,0,1-.45,1-1v-14.43c0-.55-.45-1-1-1h-6.71c-.32,0-.63.02-.95.02h.02s-1.46-.04-3.67.2c-2.76.27-5.25.8-7.46,1.6-5.6,1.86-10.65,4.68-12.55,12.32h-.59c-.46,0-.83-.37-.83-.83v-22.66c0-.55.45-1,1-1h36.78c.55,0,1-.45,1-1V4.92c0-.55-.45-1-1-1Z"></path><path class="cls-1" d="M85.03,44.72h-36.92c-.55,0-1,.45-1,1v15.56h1.14c3.53,0,5.14,2.3,5.14,4.43,0,1.75-1,3.46-2.75,4.7-2.05,1.45-5.01,2.22-8.57,2.22-14.75,0-21.47-13.49-21.47-26.02,0-19.19,12.69-27.78,25.26-27.78,8.8,0,16.22,4.14,18.49,10.19.15.4.52.67.94.67h19.49c.62,0,1.11-.57.99-1.18-3.15-16.39-17.5-25.74-39.66-25.74-14.35,0-26.35,4.9-34.71,14.17C4.05,25.09,0,36.04,0,47.75c0,10.87,3.51,20.95,9.87,28.38,7.1,8.29,17.23,12.68,29.29,12.68,27.35,0,25.64-27.48,25.64-27.48h1.61c.65,0,1.17.52,1.17,1.17v24.17c0,.55.45,1,1,1h16.45c.55,0,1-.45,1-1v-40.96c0-.55-.45-1-1-1Z"></path></g></g></svg>