<svg version="1.2" xmlns="http://www.w3.org/2000/svg" viewBox="0 0 394 79" width="394" height="79">
	<title>&lt;Path&gt;</title>
	<defs>
		<clipPath clipPathUnits="userSpaceOnUse" id="cp1">
			<path d="m333.71 58.35c-7.23-6.34-9.15-14.61-9.15-21.77 0-5.01 1.55-13.72 8.64-20.21 5.31-4.88 12.32-7.83 23.32-7.83 4.57 0 7.3 0.3 10.7 0.74 2.8 0.37 5.16 1.03 7.38 1.26 0.81 0.07 1.1 0.44 1.1 0.88 0 0.59-0.22 1.48-0.37 4.06-0.14 2.43-0.07 6.49-0.22 7.97-0.07 1.11-0.22 1.7-0.88 1.7-0.59 0-0.74-0.59-0.74-1.63-0.08-2.28-1.03-4.87-2.88-6.79-2.43-2.58-8.19-4.57-14.98-4.57-6.42 0-10.63 1.62-13.87 4.57-5.39 4.95-6.79 11.96-6.79 19.12 0 17.56 13.35 26.27 23.24 26.27 6.57 0 10.56-0.74 13.51-4.13 1.25-1.41 2.21-3.55 2.51-4.88 0.22-1.18 0.37-1.47 0.96-1.47 0.51 0 0.66 0.52 0.66 1.11 0 0.88-0.89 7.3-1.62 9.81-0.37 1.25-0.67 1.62-1.92 2.14-2.95 1.18-8.56 1.7-13.29 1.7-10.1 0-18.59-2.22-25.31-8.05zm-49.81-11.8c-0.37 0-0.51 0.14-0.66 0.59l-3.99 10.11c-0.73 1.84-1.1 3.61-1.1 4.5 0 1.33 0.66 2.29 2.95 2.29h1.11c0.88 0 1.1 0.14 1.1 0.59 0 0.59-0.44 0.73-1.25 0.73-2.36 0-5.54-0.22-7.82-0.22-0.82 0-4.88 0.22-8.71 0.22-0.96 0-1.4-0.14-1.4-0.73 0-0.45 0.29-0.59 0.88-0.59 0.67 0 1.7-0.08 2.29-0.15 3.39-0.44 4.8-2.95 6.27-6.64l18.52-45.76c0.89-2.14 1.33-2.95 2.07-2.95 0.66 0 1.11 0.67 1.84 2.36 1.78 4.06 13.58 33.58 18.31 44.8 2.8 6.64 4.94 7.67 6.49 8.04 1.11 0.22 2.21 0.3 3.1 0.3 0.59 0 0.96 0.07 0.96 0.59 0 0.59-0.67 0.73-3.4 0.73-2.65 0-8.04 0-13.94-0.14-1.33-0.08-2.22-0.08-2.22-0.59 0-0.45 0.3-0.59 1.04-0.67 0.51-0.15 1.03-0.81 0.66-1.69l-5.9-15.21c-0.15-0.37-0.37-0.51-0.74-0.51zm-15.38-38.01h2.73q-0.02 0.04-0.04 0.07-0.03 0.03-0.04 0.08-0.05 0.09-0.09 0.2 0 0.01-0.01 0.03-0.01 0.01-0.01 0.03c-0.01 0.05 0 0.02-0.02 0.06q-0.01 0.04-0.01 0.07-0.05 0.21-0.05 0.43-0.01 0.19 0.01 0.37 0 0.06 0.01 0.12 0 0.02 0.01 0.04 0.01 0.05 0.02 0.11l0.03 0.16q0.01 0.03 0.02 0.04 0 0.03 0.01 0.06c0.03 0.04 0.04 0.13 0.06 0.19l0.04 0.08c0.01 0.04 0.01 0.05 0.04 0.09q0.02 0.04 0.04 0.09 0 0.01 0.01 0.02 0 0.01 0.01 0.02 0 0.01 0.01 0.02 0.03 0.04 0.04 0.08l0.02 0.04q0.05 0.07 0.09 0.14 0.04 0.05 0.07 0.1l0.04 0.04q0.06 0.08 0.13 0.15l0.04 0.03q0 0 0.01 0l0.03 0.03q0.08 0.09 0.18 0.16 0.01 0.01 0.03 0.02l0.15 0.09c0.09 0.06 0.1 0.05 0.14 0.07 0.02 0.01 0.16 0.05 0.19 0.05q0.06 0.01 0.11 0.02c0.07 0.01 0.28 0.01 0.33-0.01 0.06-0.02 0.04 0 0.12-0.04q0.01 0 0.03-0.01l0.21-0.11q0.02-0.01 0.03-0.02 0.01-0.01 0.01-0.01l0.18-0.17 0.07-0.1q0.01-0.01 0.02-0.03l0.03-0.05q0.01 0 0.01-0.01 0.02-0.04 0.04-0.07 0.03-0.08 0.06-0.15 0-0.03 0.01-0.05 0.01-0.01 0.02-0.03 0.01-0.04 0.02-0.08l0.04-0.17q0.01-0.05 0.02-0.09c0.02-0.07 0.03-0.3 0.03-0.4q-0.01-0.1-0.02-0.19c0-0.11 0-0.09-0.02-0.19q0-0.05-0.01-0.09c-0.02-0.04-0.01-0.05-0.02-0.1 0-0.04-0.03-0.12-0.04-0.16q-0.01-0.05-0.02-0.09c-0.01-0.03-0.01-0.02-0.02-0.04q0-0.02-0.01-0.04c-0.01-0.02-0.01-0.01-0.01-0.03q-0.01-0.02-0.02-0.04-0.01-0.02-0.01-0.04c-0.01-0.03-0.01-0.01-0.02-0.04-0.03-0.06-0.07-0.16-0.1-0.21q-0.03-0.06-0.07-0.13l-0.18-0.27q-0.04-0.05-0.11-0.14h1.46q-0.06 0.07-0.1 0.13l-0.04 0.07q-0.04 0.06-0.08 0.14l-0.01 0.03q-0.01 0.01-0.02 0.03l-0.07 0.14q-0.01 0.03-0.02 0.04c-0.02 0.04-0.05 0.15-0.07 0.19l-0.03 0.07q0 0.03-0.01 0.05c-0.02 0.05-0.01 0.07-0.03 0.13q-0.01 0.02-0.01 0.04 0 0.02-0.01 0.04-0.01 0.05-0.01 0.1c-0.03 0.09-0.02 0.14-0.04 0.23-0.01 0.05-0.01 0.2-0.01 0.26 0 0.06 0 0.23 0.01 0.29q0.01 0.04 0.02 0.07 0 0.05 0 0.09c0.01 0.03 0.02 0.03 0.02 0.07 0 0.05 0.06 0.26 0.07 0.3q0.01 0.01 0.02 0.03c0.01 0.04 0.08 0.18 0.1 0.22l0.01 0.03q0.02 0.05 0.06 0.1 0.02 0.03 0.04 0.06l0.04 0.06q0.05 0.06 0.1 0.11l0.07 0.06c0.07 0.07 0.04 0.04 0.1 0.09q0.02 0.01 0.03 0.01 0.02 0.01 0.03 0.02l0.01 0.01c0.07 0.05 0.09 0.05 0.17 0.09 0.03 0.01 0.11 0.03 0.15 0.03 0.08 0.02 0.21 0.03 0.29 0.01q0.05-0.01 0.11-0.01c0.05 0 0.02 0 0.04-0.02q0.03 0 0.05-0.01l0.09-0.03q0.08-0.03 0.14-0.07 0.08-0.06 0.17-0.12 0.03-0.02 0.05-0.04c0.05-0.05 0.13-0.12 0.18-0.18l0.21-0.27c0.02-0.02 0.01-0.01 0.02-0.04l0.04-0.08c0.01-0.01 0 0 0.01-0.01l0.08-0.14q0-0.02 0.02-0.04l0.14-0.4c0-0.03 0.01-0.02 0.01-0.04q0.02-0.07 0.03-0.15 0.01-0.02 0.02-0.04 0.01-0.05 0.01-0.11 0.02-0.08 0.02-0.16 0.01-0.02 0.01-0.05c0.01-0.15 0.02-0.39 0.01-0.54q-0.01-0.04-0.02-0.09c0-0.03-0.03-0.21-0.03-0.23q-0.01-0.02-0.02-0.04c-0.01-0.04-0.02-0.04-0.02-0.08-0.01-0.04-0.03-0.12-0.05-0.16q-0.01-0.01-0.02-0.04-0.01-0.02-0.02-0.03-0.02-0.06-0.05-0.11l-0.01-0.01q-0.02-0.03-0.05-0.1h5.41l-21.91 57.76h-1.69q0.11-0.11 0.2-0.25 0.09-0.13 0.18-0.27c1.04-1.72 0.69-4.44-0.44-6.06-0.25-0.36-0.42-0.57-0.72-0.87-0.18-0.19-0.52-0.48-0.73-0.63-0.51-0.35-1.01-0.69-1.72-0.71-0.12 0-0.3 0-0.4 0.06-0.23 0.15 0.03 0.43 0.12 0.63q0.07 0.17 0.12 0.36c0.35 1.14 0.08 2.77-0.06 3.99-0.01 0.12-0.1 0.68-0.09 0.75-0.01 0.02 0 0-0.01 0.03q-0.01 0.03-0.01 0.05-0.01 0.04-0.01 0.1c-0.09 0.42-0.07 1.19 0.02 1.64q0.14 0.73 0.57 1.18h-1.93c0.37-0.36 0.65-0.85 0.8-1.31 0.31-0.98 0.3-2.07 0.08-3.09-0.11-0.51-0.27-0.96-0.37-1.49q-0.16-0.83-0.18-1.68-0.01-0.39 0.04-0.78c0.02-0.13 0.07-0.24-0.02-0.35-0.05-0.07-0.18-0.13-0.31-0.09-0.37 0.12-0.9 0.45-1.15 0.66-0.3 0.24-0.36 0.32-0.58 0.53q-0.06 0.05-0.11 0.11c-0.19 0.21-0.41 0.5-0.57 0.74-0.37 0.58-0.59 1.07-0.84 1.75-0.48 1.32-0.65 3.02 0.06 4.35q0.2 0.37 0.5 0.65h-4.21zm0.26 3.56v0.48c0.01 0.04 0.01 0 0.01 0.03q0.01 0.05 0.02 0.11 0 0.02 0.01 0.05 0 0.03 0.01 0.05l0.05 0.2q0.01 0.08 0.04 0.15l0.03 0.09c0.02 0.06 0.02 0.07 0.05 0.11l0.02 0.07c0.01 0.03 0.01 0.01 0.02 0.05 0.01 0.03 0.01 0.02 0.03 0.04l0.03 0.05c0.01 0.04 0.05 0.11 0.07 0.15q0.05 0.07 0.09 0.14 0 0 0 0 0.01 0 0.01 0 0 0.01 0 0.01l0.04 0.05q0.05 0.07 0.11 0.14 0.01 0.01 0.02 0.02 0.02 0.03 0.06 0.06 0.12 0.13 0.26 0.24 0.05 0.03 0.1 0.06 0 0.01 0.01 0.01c0.05 0.03 0.01 0.01 0.07 0.03l0.1 0.06q0.02 0.01 0.05 0.01c0.02 0.02 0 0.01 0.04 0.02q0.02 0.01 0.05 0.02 0.05 0.02 0.09 0.02 0.06 0.01 0.11 0.03c0.07 0 0.23 0 0.3-0.02q0.05 0 0.1-0.01 0.02-0.01 0.03-0.01 0.04-0.01 0.07-0.02l0.16-0.09q0.06-0.04 0.12-0.08l0.01-0.01q0-0.01 0.01-0.01c0.04-0.04 0.06-0.04 0.12-0.12q0.01-0.01 0.02-0.02l0.09-0.12c0.08-0.13 0.07-0.1 0.14-0.27q0.02-0.03 0.04-0.08l0.05-0.16c0-0.04 0.01-0.03 0.01-0.06q0.01-0.04 0.02-0.07 0.02-0.08 0.03-0.17c0.01-0.07 0.01-0.03 0.01-0.12 0-0.1 0.01-0.42-0.01-0.5-0.02-0.08 0-0.11-0.03-0.18q0 0 0-0.01c-0.01-0.01 0-0.06-0.01-0.08q-0.01-0.02-0.02-0.03 0-0.03 0-0.06-0.01-0.03-0.03-0.07l-0.04-0.11q0-0.03 0-0.05-0.01-0.01-0.02-0.04-0.01-0.04-0.03-0.07l-0.09-0.22q-0.01-0.02-0.02-0.04c-0.01-0.02-0.01-0.01-0.02-0.03q-0.01-0.02-0.01-0.03l-0.09-0.17q-0.01 0-0.01 0-0.01-0.02-0.02-0.03c-0.03-0.05-0.09-0.12-0.12-0.17q-0.02-0.04-0.05-0.07l-0.06-0.06q0-0.01 0-0.01l-0.06-0.06q0 0 0 0l-0.01-0.01q0 0 0 0l-0.12-0.11q0-0.01-0.01-0.01l-0.06-0.05c-0.05-0.04-0.17-0.13-0.22-0.15l-0.04-0.02q-0.01-0.01-0.03-0.02-0.02 0-0.04-0.01c-0.05-0.04-0.06-0.03-0.1-0.05-0.03-0.01-0.18-0.05-0.21-0.05-0.11-0.01-0.3-0.03-0.4 0.01q-0.01 0.01-0.03 0.01l-0.17 0.05q0 0-0.01 0.01l-0.05 0.03q-0.04 0.01-0.07 0.03c-0.12 0.1-0.17 0.14-0.26 0.26l-0.02 0.02q0 0-0.01 0.01l-0.14 0.22q-0.01 0.02-0.02 0.03-0.02 0.06-0.04 0.11-0.03 0.06-0.04 0.12-0.01 0.01-0.02 0.03l-0.05 0.22q0 0.05-0.01 0.1-0.02 0.09-0.01 0.2zm-0.78 12.95h-0.01l-0.18 0.2c-0.07 0.05-0.04 0.04-0.08 0.08q-0.03 0.04-0.07 0.06v0.01c-0.01 0.02 0 0 0 0.01l-0.06 0.07q0 0 0 0-0.01 0.01-0.01 0.01c-0.03 0.03-0.01 0.02-0.04 0.05q-0.01 0.03-0.03 0.04 0 0.02-0.02 0.03l-0.04 0.06q-0.03 0.04-0.06 0.08-0.01 0.02-0.02 0.03l-0.08 0.1c-0.03 0.05-0.03 0.04-0.04 0.06l-0.17 0.23c-0.02 0.02-0.05 0.08-0.07 0.09l-0.06 0.08q0 0 0 0.01l-0.05 0.05c-0.02 0.02 0 0.01-0.04 0.05l-0.08 0.1c-0.01 0.02-0.01 0-0.03 0.03q-0.03 0.04-0.04 0.05-0.01 0.01-0.01 0.02-0.01 0-0.01 0.01l-0.07 0.07q-0.04 0.05-0.07 0.07l-0.12 0.12-0.18 0.15c0 0.01-0.05 0.05-0.07 0.07l-0.08 0.07q-0.01 0.01-0.01 0.02l-0.15 0.15-0.08 0.11q-0.01 0.01-0.02 0.02l-0.02 0.02q0 0.01-0.01 0.01 0 0.01-0.01 0.01 0 0.01-0.01 0.02-0.01 0.02-0.02 0.03-0.01 0.01-0.01 0.02-0.01 0.02-0.03 0.05-0.03 0.03-0.04 0.03 0 0.02-0.01 0.04-0.01 0.02-0.02 0.03-0.01 0.01-0.01 0.03-0.01 0.01-0.01 0.02-0.03 0.04-0.06 0.1l-0.03 0.06q-0.01 0.04-0.03 0.06-0.02 0.05-0.02 0.07c-0.01 0.01-0.01-0.01-0.02 0.03q0 0.02-0.01 0.03 0 0.01-0.01 0.02l-0.01 0.01-0.03 0.11q0 0.02-0.01 0.04 0 0.02-0.01 0.04 0 0.02-0.01 0.04c0 0.05-0.01 0.02-0.01 0.08q-0.01 0.06-0.02 0.08c0 0.08-0.02 0.3-0.01 0.36q0.01 0.04 0.01 0.08c0.01 0.1 0.01 0.05 0.01 0.08q0.01 0.05 0.02 0.09 0 0.01 0.01 0.03 0 0.02 0.01 0.04 0 0.02 0 0.05 0.01 0.01 0.02 0.03 0 0.01 0.01 0.03l0.02 0.05c0.01 0.02 0 0.01 0.02 0.05v0.01c0 0.02 0-0.02 0.02 0.04l0.03 0.04q0 0.01 0.01 0.02 0.01 0.02 0.02 0.04 0.01 0.02 0.01 0.03l0.06 0.08q0.01 0 0.02 0.02l0.02 0.03q0.01 0.01 0.01 0.01 0.01 0.01 0.01 0.01 0.02 0.02 0.04 0.05 0.01 0 0.02 0.01l0.04 0.05q0.01 0.01 0.01 0.01 0.02 0.01 0.03 0.03 0.01 0.01 0.01 0.01c0.01 0 0 0 0.03 0.02q0.06 0.05 0.08 0.08l0.07 0.05c0.04 0.03 0.01-0.01 0.06 0.04 0.02 0.01 0.01 0 0.04 0.01l0.05 0.03q0.01 0.01 0.02 0.01 0.01 0.01 0.02 0.01 0.01 0 0.01 0.01c0.03 0.02 0.05 0.01 0.06 0.02l0.02 0.01c0.02 0.02 0.04 0.01 0.09 0.02l0.04 0.02q0 0 0 0l0.16 0.02c0.04 0.01 0.05 0.02 0.1 0.02q0.12 0 0.24 0c0.07 0 0.05 0.01 0.11-0.01q0.05 0 0.1-0.01 0.05-0.02 0.11-0.02 0.03 0 0.05-0.01 0.03 0 0.05 0c0.03-0.01 0.02-0.01 0.05-0.02 0.04 0 0.11-0.02 0.15-0.03q0.02 0 0.05-0.01 0.01-0.01 0.04-0.01l0.19-0.05q0.04-0.01 0.09-0.03 0.02-0.01 0.05-0.01c0.05 0 0.02 0 0.05-0.01q0.01-0.01 0.02-0.01 0.01 0 0.02-0.01l0.1-0.02c0.08-0.01 0.05-0.01 0.07-0.02 0.04 0 0.01 0.01 0.08-0.01q0.03-0.01 0.07-0.02c0.04-0.01 0.05 0 0.12-0.02l0.11-0.02q0.05 0 0.1-0.01 0.06-0.01 0.12-0.01 0.05-0.01 0.11-0.01 0.17 0 0.34 0.02 0.03 0 0.05 0.01 0.03 0 0.05 0 0.05 0.01 0.1 0.02c0.04 0 0.04 0.01 0.08 0.01q0.01 0 0.02 0.01c0.04 0 0.11 0.02 0.14 0.03q0.07 0.01 0.14 0.03 0.03 0 0.07 0.01l0.19 0.06q0.03 0.01 0.07 0.01 0.03 0.01 0.06 0.02 0.04 0.01 0.07 0.02 0.03 0.01 0.06 0.01 0.01 0.01 0.03 0.02c0.1 0.01 0.1 0.03 0.13 0.03q0.07 0.01 0.15 0.03 0.03 0 0.05 0.01 0.04 0 0.06 0.01 0.03 0.01 0.07 0.01c0.03 0 0.02 0.01 0.08 0.01h0.43q0.01-0.01 0.04-0.02 0.02 0 0.04 0 0.02 0 0.04-0.01c0.05-0.01 0.02 0 0.06-0.01l0.1-0.03c0.02-0.01 0.02-0.01 0.06-0.03l0.12-0.06c0.01 0 0.06-0.02 0.08-0.04l0.11-0.06q0.01-0.01 0.01-0.01l0.05-0.03q0-0.01 0.01-0.02l0.11-0.08c0.06-0.06 0.08-0.08 0.12-0.13 0.05-0.05 0.04-0.03 0.09-0.1q0.01-0.02 0.02-0.03 0.01-0.02 0.02-0.03c0.01-0.03 0.02-0.02 0.04-0.06q0.01-0.01 0.02-0.03l0.05-0.1q0-0.01 0-0.02l0.03-0.05q0.02-0.05 0.04-0.11c0-0.04 0.03-0.12 0.03-0.15l0.01-0.07q0.01 0 0.01-0.01 0-0.01 0-0.01 0-0.03 0-0.04c0.01-0.05 0.02-0.18 0.01-0.23-0.01-0.04-0.01-0.01-0.01-0.05q0-0.02 0-0.05 0-0.03-0.01-0.05c-0.01-0.03-0.01-0.14-0.03-0.19l-0.03-0.1c-0.01-0.05 0-0.02-0.01-0.04q-0.01-0.03-0.01-0.05-0.03-0.06-0.04-0.08-0.02-0.04-0.03-0.09 0-0.01-0.01-0.02-0.01-0.01-0.01-0.02l-0.04-0.07c-0.02-0.03 0-0.01-0.01-0.03l-0.03-0.07c-0.01-0.02 0 0-0.02-0.02l-0.02-0.02q0-0.01 0-0.01l-0.05-0.08q0-0.01-0.01-0.01 0-0.01-0.01-0.02l-0.07-0.1c-0.01-0.01-0.05-0.06-0.06-0.08q-0.02-0.03-0.04-0.05-0.01-0.01-0.01-0.02-0.03-0.03-0.04-0.04l-0.13-0.14q-0.04-0.05-0.09-0.09l-0.04-0.04c-0.03-0.02-0.02-0.02-0.04-0.04l-0.03-0.02q-0.03-0.04-0.07-0.07c-0.05-0.03-0.04-0.03-0.07-0.05l-0.17-0.17c-0.02-0.02-0.02-0.02-0.04-0.04l-0.07-0.08q-0.02-0.01-0.04-0.04-0.01-0.01-0.02-0.02l-0.19-0.24q-0.02-0.03-0.03-0.04l-0.01-0.01q0-0.01 0-0.01-0.01-0.02-0.04-0.06l-0.04-0.05c-0.02-0.01-0.07-0.09-0.08-0.12q-0.02-0.02-0.03-0.04l-0.1-0.16q-0.02-0.02-0.03-0.04-0.01-0.02-0.03-0.04l-0.02-0.03q-0.01-0.01-0.02-0.03l-0.01-0.01q-0.03-0.04-0.05-0.09c-0.01-0.02-0.01-0.01-0.03-0.04q-0.01-0.01-0.01-0.02-0.01 0-0.02-0.02l-0.05-0.07q0-0.01-0.01-0.01l-0.06-0.08q-0.01-0.01-0.02-0.02c-0.01-0.01-0.05-0.08-0.08-0.1l-0.16-0.16q-0.03-0.02-0.04-0.04l-0.02-0.01q0-0.01 0-0.01-0.02 0-0.05-0.04l-0.1-0.07q-0.02-0.01-0.03-0.02l-0.06-0.03q-0.01-0.01-0.02-0.02l-0.04-0.01q-0.01-0.01-0.02-0.02c-0.05-0.03-0.03-0.02-0.06-0.02q-0.01-0.01-0.03-0.02l-0.07-0.02c-0.02-0.01 0.01 0-0.03-0.01-0.03-0.01-0.01 0-0.03-0.01q-0.01-0.01-0.04-0.01c-0.03 0-0.01 0-0.03-0.01q-0.01-0.01-0.03-0.01c-0.02 0-0.01-0.01-0.04-0.01-0.04-0.01-0.02 0-0.07-0.02q-0.02 0-0.03 0c-0.12-0.03-0.11-0.01-0.2-0.03q-0.02 0-0.04 0-0.17-0.01-0.34 0.01l-0.11 0.02c-0.03 0.01-0.01 0.01-0.06 0.02l-0.1 0.03q-0.02 0.01-0.03 0.01l-0.1 0.04q-0.01 0.01-0.02 0.02l-0.09 0.04q-0.02 0.02-0.05 0.04l-0.08 0.05q-0.01 0.01-0.02 0.02l-0.05 0.04q-0.02 0.01-0.03 0.02zm3 1.14q0 0 0 0zm-0.52-5.42q0 0-0.01 0 0 0.01 0 0.01 0 0 0 0-0.02 0.01-0.03 0.02l-0.12 0.07q-0.03 0.02-0.06 0.05l-0.01-0.01q0 0.01 0 0.01-0.01 0.02-0.03 0.03l-0.21 0.2q0 0.01-0.01 0.01-0.01 0.03-0.05 0.06 0 0.01 0 0.01-0.01 0-0.01 0.01c-0.02 0.02-0.06 0.08-0.07 0.1l-0.01 0.01q0 0-0.01 0c-0.01 0.02 0 0.01-0.02 0.04l-0.03 0.04q0.01 0.01 0 0.01 0 0.01-0.01 0.02 0 0.01-0.01 0.01l-0.06 0.12c-0.01 0.03-0.01 0.01-0.02 0.04q0 0.02-0.01 0.04-0.01 0.01-0.02 0.03c-0.01 0.03 0.01 0.02-0.02 0.03q0 0.01 0 0.02c-0.01 0.02 0 0-0.02 0.04v0.01c-0.03 0.04-0.01 0-0.02 0.05 0 0.02 0 0-0.01 0.06l-0.02 0.05q0 0 0 0 0 0.01-0.01 0.01l-0.02 0.08c-0.01 0.02 0 0-0.01 0.02q0 0.02 0 0.03 0 0.02-0.01 0.03 0 0.03-0.01 0.06 0 0.02-0.01 0.05 0 0.03 0 0.06c-0.02 0.07-0.02 0.02-0.02 0.12q0 0.13 0 0.27 0 0.06 0 0.12c0 0.04 0.02 0.11 0.01 0.12l0.02 0.07q0.01 0.04 0.02 0.08 0 0.02 0.01 0.03 0 0.02 0.01 0.04 0 0.02 0.01 0.03l0.02 0.07q0.01 0.02 0.03 0.07c0.01 0.03 0 0 0.02 0.05q0 0.01 0.01 0.02l0.01 0.02q0 0 0 0.01c0 0 0.04 0.09 0.07 0.12q0 0.01 0 0.01l0.09 0.13c0.05 0.05 0.01 0.02 0.04 0.05 0.02 0.01 0.08 0.08 0.13 0.13 0.03 0.02 0.02 0 0.04 0.03 0.02 0-0.01 0 0.02 0.01q0.04 0.03 0.06 0.04l0.01 0.01c0.03 0.02 0.01 0 0.03 0.02q0.01 0 0.01 0l0.04 0.02q0 0 0 0 0.01 0 0.01 0.01 0.01 0 0.02 0.01 0.01 0 0.02 0c0.01 0 0.04 0.01 0.04 0.02l0.08 0.02q0.11 0.04 0.23 0.03c0.05 0 0.13 0 0.18 0 0.02 0 0-0.01 0.07-0.02l0.13-0.05c0.09-0.03 0.09-0.04 0.12-0.05 0.03-0.01 0.02-0.01 0.03-0.02q0.02 0 0.07-0.03c0.04-0.02 0 0 0.05-0.03q0.02-0.01 0.03-0.02l0.11-0.07q0-0.02 0.02-0.03l0.02-0.02q0.01-0.01 0.02-0.02 0.01-0.01 0.02-0.02l0.05-0.04q0.03-0.04 0.06-0.07 0 0 0 0c0.03-0.01 0.01 0 0.03-0.03l0.02-0.04q0.01-0.01 0.02-0.02c0.03-0.04 0.02 0 0.04-0.05q0.01-0.01 0.02-0.03c0.01-0.02 0-0.01 0.01-0.03l0.08-0.13q0.01-0.01 0.02-0.02 0.03-0.05 0.05-0.1l0.02-0.03q0.02-0.04 0.03-0.06l0.02-0.06q0 0 0 0 0 0 0.01 0 0-0.05 0.03-0.1 0-0.01 0.01-0.03 0.01-0.03 0.02-0.07l0.02-0.07q0.01-0.01 0.01-0.03 0.01-0.02 0.01-0.03 0-0.05 0.01-0.08 0.01-0.04 0.02-0.08 0-0.04 0.01-0.08c0-0.07 0.02-0.1 0.02-0.15 0-0.05 0.01-0.32-0.01-0.36-0.01-0.02 0 0.01-0.01 0 0-0.02 0-0.12-0.01-0.14l-0.01-0.06c0-0.03-0.01-0.01-0.02-0.04 0-0.06-0.03-0.12-0.03-0.15q-0.02-0.07-0.03-0.1-0.01-0.02-0.01-0.03l-0.04-0.06c-0.03-0.07-0.05-0.09-0.07-0.14l-0.01-0.02q0 0 0 0-0.04-0.06-0.08-0.11-0.02-0.03-0.04-0.05-0.01-0.01-0.03-0.02-0.05-0.06-0.1-0.1 0 0 0-0.01l-0.03-0.02c-0.01-0.05 0.03-0.15 0.03-0.17 0.01-0.02 0.01-0.08 0.01-0.09 0.02-0.06 0.01-0.25 0-0.3q-0.01-0.04-0.02-0.09l-0.01-0.05q-0.01-0.04-0.02-0.07l-0.03-0.07q-0.01-0.04-0.02-0.06-0.02-0.05-0.05-0.11l-0.06-0.09c-0.01-0.02-0.04-0.07-0.05-0.08q-0.02-0.01-0.03-0.03l-0.03-0.04q-0.01-0.02-0.02-0.02c0 0.03 0.01 0.1 0.02 0.14 0.01 0.09 0.01 0.03 0.01 0.15v0.23q-0.01 0.04-0.01 0.08-0.01 0.06-0.03 0.12l-0.01 0.07q-0.01 0.03-0.02 0.06-0.01 0.03-0.02 0.06l-0.04 0.11c-0.02 0.03-0.01 0.02-0.03 0.06q-0.04 0-0.09-0.01-0.09-0.01-0.19 0-0.02 0-0.04 0.01l-0.13 0.02q0 0-0.01 0 0 0 0 0l-0.01 0.01q-0.01 0-0.02 0l-0.14 0.06q-0.02 0.01-0.04 0.01zm-0.82 2.64c-0.01 0 0.01 0.02 0 0zm-2.82-3.46v0.01c-0.01 0.01-0.07 0.11-0.08 0.14q-0.02 0.03-0.02 0.04-0.01 0.02-0.02 0.04 0 0.02-0.01 0.03-0.01 0.02-0.01 0.04-0.01 0.01-0.01 0.03c-0.01 0.04-0.01 0.01-0.02 0.04q-0.01 0.02 0 0.04-0.01 0.02-0.01 0.03-0.01 0.02-0.01 0.05c0 0.02-0.01 0-0.01 0.03-0.02 0.08 0 0.25-0.01 0.32q-0.02 0.01-0.05 0.03-0.03 0.01-0.05 0.03l-0.08 0.05q-0.01 0.01-0.02 0.01 0 0 0 0l-0.01 0.02q-0.01 0.01-0.02 0.02-0.01 0.01-0.02 0.02-0.01 0.02-0.03 0.01l-0.06 0.07c-0.02 0.03-0.02 0.04-0.05 0.07l-0.08 0.12q0 0-0.01 0.01l-0.09 0.2q-0.01 0.02-0.02 0.04 0 0.01-0.02 0.06 0 0.01-0.01 0.03 0 0.02-0.01 0.03l-0.03 0.11q0 0.01-0.01 0.03 0 0.02 0 0.04l-0.03 0.14c-0.02 0.05-0.01 0.41 0 0.5v0.04q0 0 0.01 0 0-0.01 0 0.03c0 0.09 0.01 0.07 0.02 0.11 0 0.04-0.01 0.03 0.01 0.06q0 0.01 0 0.01 0 0 0.01 0 0 0.03 0.01 0.06 0.01 0.02 0.01 0.04c0 0.06 0.01 0.02 0.02 0.08q0.01 0.08 0.03 0.09l0.02 0.07q0 0.01 0.01 0.03 0.02 0.04 0.02 0.07c0.03 0.02 0.01 0.01 0.03 0.04q0.01 0.02 0.02 0.05l0.06 0.09c0.01 0.04 0.06 0.1 0.07 0.12q0 0.01 0.01 0.01l0.06 0.09q0.02 0.04 0.03 0.05c0.03 0.02 0.01 0.02 0.03 0.03q0 0.01 0 0.01 0 0 0 0 0.03 0.01 0.04 0.04 0 0 0 0l0.04 0.04q0.01 0.01 0.02 0.02l0.08 0.07q0.01 0.01 0.01 0.01 0.02 0.01 0.03 0.03 0.02 0 0.06 0.04l0.08 0.05c0.03 0.02 0.02 0.01 0.03 0.03 0.05 0 0.04 0 0.04 0.02q0.03-0.01 0.05 0.01c0.04 0.01 0.02 0.01 0.05 0.02 0.03 0.02 0.01 0.01 0.05 0.02q0.03 0.01 0.05 0.02 0.02 0 0.02 0.01 0.02 0 0.03 0.01c0.04 0 0.05 0.01 0.12 0.02 0.08 0 0.03 0 0.13 0q0.04 0.01 0.07 0l0.18-0.03 0.05-0.02q0.03-0.01 0.05-0.02c0.01 0 0.07-0.03 0.11-0.05l0.08-0.05q0.04-0.02 0.05-0.04 0 0 0 0l0.01-0.01q0 0 0.01 0h0.01v-0.02q0.01 0 0.02-0.01 0.06-0.05 0.11-0.11l0.07-0.09q0.02-0.03 0.04-0.05 0.02-0.04 0.03-0.06 0.02-0.03 0.05-0.08l0.03-0.08c0.02-0.03 0.01-0.02 0.02-0.04l0.03-0.06q0-0.01 0.01-0.03 0-0.01 0.01-0.03c0.01-0.02 0.02-0.08 0.03-0.1q0.01-0.03 0.01-0.07 0.01 0 0.01-0.02 0.01-0.03 0.01-0.05c0.02-0.05 0 0 0.01-0.07q0.01-0.04 0.01-0.07c0.02-0.08 0.02-0.42 0-0.5l-0.02-0.11c0-0.02 0 0 0-0.03-0.01-0.03-0.02-0.12-0.03-0.14-0.01-0.03-0.02-0.12-0.04-0.14-0.02-0.04 0-0.02-0.02-0.06q-0.01-0.04-0.02-0.08-0.02-0.03-0.03-0.05c-0.01-0.02 0 0 0-0.01q-0.01-0.02-0.02-0.04c-0.02-0.05-0.01-0.02-0.03-0.07q0-0.02-0.01-0.03-0.01-0.02-0.02-0.03l-0.08-0.13q0 0 0-0.01 0 0 0 0 0 0-0.01-0.01-0.04-0.06-0.07-0.12c-0.02-0.01 0-0.01-0.03-0.04l-0.05-0.05c-0.05-0.05-0.05-0.07-0.1-0.11-0.02-0.01-0.01-0.01-0.03-0.03l-0.05-0.04q-0.01-0.01-0.02-0.01-0.01-0.02-0.02-0.03-0.01-0.01-0.03-0.01l-0.03-0.02q-0.01-0.02-0.02-0.03l-0.02-0.01c-0.02-0.01-0.02 0-0.05-0.03l-0.2-0.09q-0.02-0.01-0.04-0.01-0.01-0.01-0.03-0.02-0.02 0-0.04-0.01l-0.12-0.02q-0.05 0-0.1 0 0-0.02-0.01-0.04-0.01-0.01-0.01-0.02-0.01-0.03-0.01-0.07-0.01-0.06-0.02-0.14c-0.01-0.09-0.01-0.05-0.01-0.14 0-0.12 0.01-0.13 0.02-0.22 0.01-0.06 0.01-0.03 0.01-0.06q0.01-0.04 0.01-0.07l0.02-0.06q0-0.02 0.01-0.04 0-0.01 0-0.03l0.03-0.08q0.01-0.02 0.01-0.03c0.01-0.03 0.01-0.01 0.02-0.03q0-0.02-0.01-0.03-0.02 0-0.01 0.01l-0.03 0.03q-0.01 0-0.02 0.02-0.01 0-0.01 0.01 0 0 0 0 0 0-0.01 0 0 0.01-0.01 0.01l-0.03 0.03q-0.01 0.01-0.02 0.02-0.04 0.05-0.07 0.09c-0.04 0.04-0.06 0.1-0.09 0.1zm-0.21 3.87q0 0 0 0 0 0 0 0zm7.61-1.17q0 0.03-0.01 0.05 0 0.01-0.01 0.03 0.01 0.01 0 0.02 0 0 0 0c-0.02 0.05-0.01 0.02-0.01 0.07-0.01 0.05-0.02 0-0.02 0.07q-0.02 0-0.02 0.03 0 0.06-0.04 0.11c0.01 0.02-0.02 0.07-0.03 0.08q0 0.01 0 0.02 0 0 0 0l-0.05 0.11q-0.01 0.01-0.02 0.01 0 0.03-0.02 0.05l-0.08 0.12q-0.02 0.04-0.06 0.04-0.02 0-0.03-0.01l-0.05-0.02q-0.02 0-0.04-0.01-0.01 0-0.02-0.01-0.02 0-0.04 0-0.02-0.01-0.06-0.02c-0.06 0-0.16 0-0.22 0q-0.03 0-0.07 0.01-0.03 0-0.07 0.01-0.03 0-0.05 0.01-0.03 0.01-0.06 0.02l-0.08 0.02q-0.01 0.01-0.02 0.01c-0.03 0.02 0-0.01-0.04 0.02q-0.03 0.02-0.05 0.02 0 0.02-0.01 0.02l-0.18 0.1q-0.02 0.02-0.06 0.04 0 0-0.02 0.01 0 0.01-0.01 0.01 0 0 0 0.01-0.01 0-0.01 0 0 0 0 0.01 0 0-0.01 0l-0.09 0.08q-0.04 0.04-0.07 0.07l-0.04 0.06q-0.02 0.01-0.03 0.03-0.02 0.01-0.03 0.03-0.01 0.02-0.02 0.03l-0.05 0.06q-0.01 0.02-0.02 0.04c-0.01 0.02-0.01 0-0.02 0.03-0.01 0.02-0.06 0.09-0.08 0.14-0.02 0.03-0.02 0.03-0.04 0.08l-0.12 0.32c0 0.01-0.01 0-0.01 0.04 0 0.04-0.01 0.01-0.01 0.07q0 0.01 0 0.01 0 0-0.01 0.01 0 0 0 0.01 0 0 0 0.02-0.01 0.01-0.01 0.05c-0.02 0.13-0.02 0.14-0.02 0.27 0 0.02 0 0.08 0 0.09 0.01 0.06 0.01 0.04 0.02 0.09q0.01 0.06 0.02 0.07l0.01 0.09q0 0 0 0l0.01 0.01c0.02 0.04 0.01 0.06 0.05 0.13 0.02 0.04 0.01 0.03 0.02 0.05q0 0.01 0.01 0.02 0.01 0.03 0.04 0.07c0.02 0.03 0.01 0.02 0.02 0.04l0.06 0.08c0.02 0.03 0 0.01 0.03 0.04q0.03 0.04 0.07 0.07c0.03 0.02 0.01 0 0.03 0.02l0.13 0.1q0.01 0 0.02 0.01 0.01 0 0.01 0 0.04 0.02 0.07 0.03c0.01 0.01-0.01 0 0.02 0.01q0.01 0.01 0.02 0.01 0.03 0.01 0.06 0.02 0.02 0.01 0.06 0.01c0.04 0 0.03 0.02 0.18 0.02q0.07 0 0.14-0.01 0.03 0 0.06 0l0.15-0.03q0.01 0 0.02-0.01l0.11-0.04q0.02-0.02 0.05-0.02 0.01-0.01 0.03-0.02 0.02 0 0.02-0.01 0.04-0.02 0.06-0.04 0.02-0.01 0.03-0.01 0.02-0.02 0.04-0.02l0.01-0.01q0-0.01 0.01-0.01c0.03-0.03 0.04-0.02 0.09-0.06l0.01-0.01q0 0 0 0 0.02-0.02 0.04-0.04 0.01-0.01 0.03-0.02 0-0.01 0.02-0.01c0-0.03 0.01-0.01 0.05-0.05q0.02-0.03 0.05-0.06l0.06-0.08c0.04-0.04 0.01-0.02 0.04-0.05q0 0 0 0l0.05-0.07q0.01-0.02 0.02-0.03l0.04-0.06q0.02-0.03 0.04-0.07 0.01-0.01 0.02-0.03l0.03-0.07q0.01-0.01 0.02-0.03l0.08-0.18c0.01-0.02 0-0.01 0.01-0.04 0-0.02 0.03-0.08 0.03-0.12l0.02-0.1q0-0.02 0.02-0.02-0.01-0.04 0-0.08 0-0.02 0-0.04 0.01-0.02 0.01-0.04c0.01-0.03 0-0.13 0-0.17 0-0.1-0.01-0.11-0.01-0.16 0-0.14-0.01-0.07-0.02-0.11q0-0.03 0-0.04c-0.01-0.01 0 0-0.01-0.02q-0.01-0.02-0.01-0.04l-0.03-0.07q0-0.04-0.02-0.06c-0.01-0.03-0.03-0.08-0.05-0.1l-0.04-0.07c-0.03-0.07-0.05-0.04-0.02-0.09l0.05-0.09q0 0 0-0.02l0.03-0.07q0.01-0.02 0.02-0.05c0.02-0.06 0.02-0.06 0.03-0.12q0-0.01 0-0.02 0-0.01 0.01-0.02c0.01-0.03 0.01-0.23 0.01-0.26l-0.01-0.09q0-0.01-0.01-0.03v-0.07c-0.01-0.03-0.04-0.11-0.04-0.13q-0.01-0.06-0.03-0.11-0.02-0.04-0.04-0.08 0.01-0.03-0.01-0.03-0.02 0-0.02 0.03 0 0.03 0 0.05 0 0.01-0.01 0.02 0.01 0.02 0 0.02zm-0.8 3.5q-0.01 0-0.01 0zm-9.58-2.39q0 0.01-0.03 0.06-0.01 0.01-0.01 0.01l-0.03 0.05q-0.01 0.02-0.01 0.03-0.02 0.02-0.02 0.03 0 0.02-0.01 0.03-0.01 0.02-0.02 0.04-0.02 0.05-0.03 0.1-0.01 0.02-0.01 0.04l-0.03 0.12c-0.01 0.02-0.01 0.09-0.01 0.13q-0.01 0.02-0.01 0.04 0 0.02 0 0.05 0 0.09 0 0.19 0 0.04 0.01 0.08 0 0.05 0.01 0.09 0 0.02 0.01 0.03 0 0.02 0 0.05 0.02 0.03 0.01 0.08 0.01 0 0.01 0l0.01 0.03q0.01 0.01 0.01 0.03 0.01 0.03 0.02 0.07c0.02 0.03 0 0.02 0.02 0.06l0.06 0.12q0 0.02 0.01 0.03 0.01 0.02 0.01 0.03l0.15 0.25q0.01 0.01 0.02 0.02l0.04 0.05q0.01 0.02 0.02 0.03 0.02 0.03 0.05 0.07l0.04 0.04q0.03 0.02 0.05 0.05 0.01 0 0.03 0.02 0.02 0.01 0.03 0.03c0.02 0.02 0.01 0.01 0.03 0.02q0.03 0.03 0.06 0.05c0.02 0.01 0.08 0.05 0.1 0.07 0.02 0.01 0 0 0.02 0.01l0.06 0.03q0 0.01 0.01 0.02 0.01-0.01 0.03 0.01 0.05 0.01 0.09 0.04l0.13 0.04q0.02 0.01 0.05 0.01 0.04 0.01 0.09 0.02c0.06 0 0.22 0 0.27-0.01 0.03-0.01 0.02-0.01 0.05-0.01l0.09-0.03c0.05-0.02 0.05-0.02 0.1-0.04 0.01-0.01 0.02 0 0.05-0.03 0.02-0.01 0.01 0 0.02-0.01q0.04-0.02 0.05-0.03 0.02-0.01 0.04-0.02 0-0.01 0.01-0.02l0.13-0.12c0.02-0.03 0.02-0.01 0.03-0.03l0.02-0.03q0.01-0.01 0.01-0.01c0.03-0.04 0.02-0.04 0.04-0.06q0.01-0.01 0.01-0.02c0.02-0.04 0.01-0.04 0.04-0.05q0-0.03 0.01-0.04 0.01-0.02 0.02-0.05c0.01-0.06 0.03-0.06 0.03-0.1l0.03-0.1q0.01-0.02 0.01-0.05 0-0.02 0.01-0.03 0-0.06 0.01-0.11 0.01 0 0.01-0.02c0.01-0.03 0-0.32 0-0.35q-0.01-0.01-0.01-0.02-0.01-0.03-0.01-0.05 0-0.03-0.01-0.06 0-0.03 0-0.06-0.01-0.02-0.02-0.04l-0.03-0.11c-0.01-0.02 0-0.02-0.02-0.05q0 0 0 0 0 0 0-0.01c-0.01-0.06 0-0.01-0.03-0.07q0-0.03-0.01-0.05-0.01-0.02-0.01-0.02-0.01-0.02-0.01-0.03l-0.03-0.07q-0.02-0.03-0.04-0.05 0-0.02 0-0.03l-0.06-0.1q0 0 0 0-0.01 0-0.01 0l-0.01-0.02q0-0.01-0.01-0.01-0.01-0.01 0-0.02-0.03-0.02-0.05-0.06c-0.01-0.02-0.06-0.08-0.08-0.1l-0.05-0.05q0 0-0.01-0.01l-0.18-0.16q-0.02-0.02-0.04-0.03-0.02-0.01-0.04-0.03c-0.02-0.02 0 0-0.04-0.03-0.06-0.03-0.17-0.09-0.24-0.11q-0.03-0.01-0.1-0.03c-0.12-0.03-0.18-0.03-0.31-0.03-0.03 0-0.12 0.01-0.15 0.02q-0.06 0.01-0.08 0.02l-0.05 0.02q-0.03 0.01-0.05 0.01l-0.01-0.01c-0.01 0 0 0.01-0.01-0.01q-0.01-0.01-0.01-0.02-0.01-0.01-0.01-0.03-0.03-0.03-0.05-0.08 0-0.01 0-0.01l-0.01-0.01c-0.01-0.05-0.01-0.02-0.02-0.07q0-0.02-0.01-0.05-0.02-0.02-0.02-0.04 0-0.03-0.01-0.05l-0.03-0.16q0-0.05-0.01-0.11c0-0.04 0-0.2-0.01-0.23q-0.03 0.02-0.04 0.06-0.02 0.02-0.03 0.05l-0.04 0.09q0 0-0.01 0.01 0 0.01 0 0.02l-0.02 0.05q-0.01 0.01-0.02 0.03c-0.02 0.05-0.01 0.04-0.02 0.07-0.02 0.06-0.01 0.05-0.02 0.08 0 0.01 0 0-0.01 0.03q0 0.02 0 0.04c-0.02 0.05-0.02 0.29-0.01 0.36 0 0.09 0.01 0.04 0.01 0.08l0.02 0.08c0 0.02 0.01 0.01 0.01 0.03l0.03 0.07q0 0.03-0.01 0.04zm0.59 2.32q0 0 0 0 0 0 0 0zm-1.03 7.45c-0.01 1.83 0.32 3.67 0.32 4.8-0.01 1.65-2.13-0.8-5.8-1.51 0.71 1.54 4.41 3.01 5.62 3.97 0.55 0.43 0.55 2 1.35 1.89 0.43-0.06 0.5-0.58 0.57-1 0.17-0.98 0.38-1.17 1.24-1.94 0.27-0.23 0.59-0.51 0.88-0.74l1.65-1.53c0.24-0.25 0.54-0.55 0.71-0.91 0.3-0.66 0.5-0.79 0.58-1.02-0.63 0.15-2.06 1.09-2.63 1.5l-1.75 1.36c-0.23 0.17-0.42 0.31-0.79 0.23-0.32-0.21-0.41-4.24-0.94-5.91-0.11-0.34-0.26-0.5-0.38-0.79-0.14-0.37-0.12-0.66-0.31-0.88-0.09 0.35-0.08 0.82-0.18 1.19-0.12 0.47-0.14 0.77-0.14 1.29zm-1.19 10.32l-0.2-0.02c-0.08 0.04-0.1 0.01-0.24 0.14q-0.1 0.1-0.16 0.27c-0.1 0.22-0.13 0.47-0.16 0.72-0.24 1.72-0.69 2.44-1.22 3.98-0.32 0.95-0.57 1.79-0.16 2.71 0.15 0.33 0.43 0.67 0.77 0.87 0.4 0.23 0.88 0.33 1.36 0.22 0.9-0.21 1.31-0.86 1.63-1.67 0.77-1.97 0.63-4.44-0.6-6.17-0.15-0.21-0.47-0.62-0.65-0.79q-0.05-0.05-0.11-0.1c-0.09-0.08-0.18-0.1-0.26-0.16zm-4.83 8.53l0.29-0.03c0.76-0.15 1.31-0.69 1.55-1.42 0.27-0.78 0.08-1.83-0.06-2.57-0.27-1.41-0.46-2.32-0.39-3.78q0.03-0.34-0.04-0.65c-0.03-0.12-0.1-0.27-0.2-0.35-0.04-0.03-0.03-0.01-0.06-0.03l-0.06-0.05-0.18-0.01c-0.1 0.04-0.09 0-0.31 0.12-0.22 0.11-0.57 0.43-0.76 0.59l-0.45 0.48c-0.19 0.23-0.23 0.29-0.4 0.52q-0.05 0.09-0.13 0.17c-0.04 0.16-0.13 0.26-0.21 0.4-0.62 1.12-0.84 2.51-0.74 3.79 0.02 0.26 0.02 0.13 0.07 0.21 0.04 0.06-0.03 0.23 0.02 0.53 0.11 0.61 0.23 0.96 0.6 1.41 0.21 0.26 0.58 0.55 0.94 0.6l0.26 0.06zm6.8 0.57c-0.12 0.03-0.35 0.21-0.48 0.29-0.61 0.4-1.34 0.71-1.99 1.04-0.2 0.1-0.31 0.15-0.44 0.33-0.27 0.4-0.12 0.91 0.15 1.12 0.49 0.38 1.18-0.24 1.56-0.5 0.22-0.15 0.61-0.54 0.8-0.76 0.23-0.28 0.67-1.04 0.62-1.37-0.01-0.11-0.09-0.18-0.22-0.15zm-9.81-0.76l-0.02 0.19c0.02 0.04 0.07 0.4 0.12 0.6q0.09 0.28 0.21 0.53c0.17 0.36 0.36 0.61 0.61 0.9q0.34 0.41 0.76 0.76c0.39 0.32 0.79 0.26 1.05-0.08 0.26-0.36 0.18-0.86-0.1-1.11-0.16-0.14-0.67-0.5-0.89-0.67-0.39-0.29-0.94-0.71-1.27-1.05-0.25-0.26-0.32-0.25-0.47-0.07zm44.56-9.34c0.37 0 0.45-0.22 0.37-0.44l-6.64-18.16c-0.07-0.29-0.15-0.66-0.37-0.66-0.22 0-0.37 0.37-0.44 0.66l-6.79 18.08c-0.07 0.3 0 0.52 0.3 0.52zm-28.32-26.04v0.19l0.02 0.14q0.01 0.03 0.02 0.05 0 0.04 0 0.08 0.01 0.03 0.02 0.06l0.02 0.06c0.02 0.05 0.03 0.05 0.03 0.08 0.01 0.04 0.01 0.04 0.02 0.07q0.01 0.03 0.02 0.06c0.01 0.02 0.05 0.09 0.06 0.11l0.04 0.06c0.04 0.06 0.08 0.15 0.14 0.19l0.02 0.03q0 0 0.01 0l0.12 0.14q0 0 0.01 0l0.25 0.17q0.02 0.01 0.03 0.02 0.03 0.01 0.06 0.03 0.03 0.01 0.05 0.02 0.02 0 0.03 0.01 0.01 0.01 0.03 0.01l0.09 0.03q0.01 0.01 0.02 0.02c0.08 0.03 0.36 0.05 0.44 0.04 0.06-0.01 0.17 0 0.22-0.03q0.04-0.01 0.09-0.02 0.02-0.01 0.04-0.01l0.18-0.06q0.03-0.01 0.06-0.01 0.01-0.01 0.02-0.02 0.02 0 0.04 0 0.02 0 0.03-0.01l0.1-0.03c0.05-0.01 0.03 0.01 0.09-0.02q0.02 0 0.04-0.01c0.05-0.01 0.07-0.02 0.13-0.02q0.03-0.01 0.06-0.02 0.04 0 0.07-0.01c0.08-0.01 0.06-0.01 0.15-0.01 0.06-0.01 0.08-0.02 0.14-0.03 0.11 0 0.66-0.01 0.73 0.01 0.06 0.02 0.12 0.01 0.19 0.03q0.06 0.01 0.11 0.02 0.03 0.01 0.07 0.01c0.05 0 0.05 0.01 0.07 0.02q0.02 0 0.04 0 0.02 0.02 0.02 0.02c0.02 0.01 0.07 0.01 0.09 0.02q0.03 0.01 0.06 0.01c0.04 0.01 0 0.02 0.06 0.02l0.07 0.02c0.03 0.01 0.03 0 0.07 0.02q0.02 0.01 0.03 0.01 0.03 0 0.04 0.01c0.03 0.01 0.1 0.02 0.14 0.03q0.01 0 0.01 0.01l0.05 0.01q0.04 0.01 0.06 0.02l0.16 0.02c0.08 0.02 0.26 0.01 0.34 0q0.08-0.01 0.15-0.03 0.04-0.01 0.07-0.01l0.07-0.02q0.02-0.01 0.03-0.02 0.01 0 0.03-0.01 0.03-0.01 0.06-0.02 0.06-0.03 0.12-0.06 0.01 0 0.01-0.01h0.02q0.01-0.01 0.03-0.02 0.05-0.03 0.1-0.06l0.09-0.05q0.04-0.04 0.09-0.08 0-0.01 0.01-0.01 0.06-0.04 0.1-0.1l0.13-0.13q0-0.01 0.01-0.01 0-0.01 0.01-0.01l0.11-0.17q0.05-0.08 0.08-0.14 0.03-0.05 0.05-0.11c0 0 0.02-0.04 0.03-0.06q0.01-0.03 0.02-0.06 0.01-0.03 0.02-0.06l0.02-0.07c0.01-0.03 0.01-0.03 0.02-0.07 0.02-0.05 0.03-0.16 0.04-0.21 0.02-0.09 0.02-0.45 0-0.52q-0.01-0.08-0.02-0.16-0.01-0.03-0.01-0.06c-0.01-0.04 0-0.02-0.02-0.04q0-0.03-0.01-0.05-0.01-0.02-0.01-0.05c-0.02-0.09-0.13-0.34-0.18-0.39l-0.03-0.06q-0.01-0.01-0.01-0.02l-0.21-0.32q-0.04-0.05-0.07-0.1l-0.02-0.03q0 0 0 0-0.02-0.03-0.05-0.06l-0.3-0.43q-0.04-0.06-0.08-0.11l-0.17-0.23q0 0 0-0.01h-0.01q0-0.01 0-0.01l-0.11-0.15c-0.04-0.04-0.12-0.16-0.15-0.19l-0.1-0.13q-0.02-0.02-0.03-0.03l-0.14-0.18q-0.06-0.07-0.12-0.14-0.01-0.01-0.02-0.03l-0.2-0.24q0 0 0 0-0.02-0.02-0.03-0.04l-0.1-0.11q-0.01 0-0.01-0.01l-0.29-0.33q-0.01-0.01-0.01-0.02-0.02-0.01-0.04-0.03c-0.05-0.06-0.05-0.07-0.12-0.13-0.12-0.11-0.17-0.14-0.29-0.21q-0.03-0.01-0.09-0.04-0.01-0.01-0.02-0.01l-0.17-0.05q-0.01-0.01-0.05-0.02-0.03 0-0.05-0.01c-0.08-0.02-0.11-0.01-0.17-0.02q-0.09-0.02-0.17 0-0.05 0.01-0.11 0.01c-0.03 0.01-0.02 0.01-0.05 0.01q-0.03 0.01-0.06 0.02c-0.02 0.01-0.01 0-0.05 0.01q-0.03 0.01-0.04 0.02-0.03 0-0.05 0.01-0.02 0.01-0.04 0.02c-0.04 0.01-0.02 0.01-0.05 0.02q-0.13 0.04-0.24 0.14l-0.09 0.06q-0.07 0.06-0.13 0.13l-0.02 0.04q0 0-0.01 0l-0.01 0.01c-0.03 0.05-0.09 0.2-0.1 0.22l-0.08 0.17q-0.01 0.02-0.02 0.04c-0.01 0.03 0 0.01-0.01 0.02q-0.01 0.01-0.01 0.03-0.02 0.05-0.05 0.1c-0.02 0.02-0.01 0-0.02 0.02l-0.04 0.09q0 0.01-0.01 0.02c-0.01 0.02 0 0-0.01 0.02q-0.02 0.04-0.04 0.07 0 0.01 0 0.01-0.01 0.01-0.01 0.02 0 0.01-0.01 0.01-0.02 0.05-0.05 0.1 0 0-0.01 0.02-0.05 0.09-0.09 0.19-0.01 0.02-0.02 0.04l-0.3 0.5q0 0.01-0.01 0.01l-0.09 0.16q-0.06 0.1-0.13 0.19l-0.05 0.08q-0.01 0.01-0.01 0.02l-0.03 0.04q0 0-0.01 0.01 0 0.01-0.01 0.02 0 0 0 0 0 0 0 0l-0.02 0.03q-0.01 0.01-0.02 0.03l-0.18 0.27q-0.02 0.04-0.03 0.05l-0.03 0.04c-0.02 0.03-0.06 0.09-0.08 0.11-0.03 0.03-0.1 0.12-0.1 0.12-0.03 0.03-0.03 0.04-0.05 0.07q-0.02 0.02-0.03 0.04l-0.25 0.32q-0.01 0.02-0.03 0.04 0 0 0 0-0.04 0.05-0.08 0.11c-0.05 0.1-0.05 0.11-0.1 0.21l-0.02 0.1q-0.02 0.05-0.03 0.1c-0.03 0.14-0.05 0.17-0.04 0.34zm5.85-4.15c0 0.12-0.01 0.4 0.01 0.5l0.02 0.14q-0.01 0.03 0 0.05c0.01 0.04 0.01 0.04 0.02 0.09q0 0.02 0.01 0.04 0.01 0.04 0.01 0.09c0.02 0.04 0.02 0.04 0.02 0.09 0.01 0.04 0.01 0.02 0.02 0.08 0.01 0.03 0.11 0.29 0.12 0.32q0.02 0.04 0.04 0.08 0.03 0.05 0.06 0.09 0.03 0.05 0.06 0.1l0.04 0.05q0.02 0.02 0.03 0.03l0.02 0.03q0.06 0.05 0.11 0.11 0.03 0.02 0.06 0.04 0.05 0.04 0.09 0.07 0.02 0 0.04 0.01l0.07 0.04q0.02 0.01 0.04 0.01 0.02 0.01 0.04 0.02c0.04 0.02 0.04 0.01 0.09 0.02 0.11 0.03 0.31 0.02 0.42-0.02q0.02-0.01 0.04-0.01 0.02-0.01 0.04-0.02 0.02 0 0.04-0.01c0.08-0.05 0.13-0.06 0.26-0.16 0.11-0.08 0.1-0.08 0.2-0.18 0.06-0.06 0.17-0.19 0.21-0.26q0.03-0.04 0.04-0.07l0.03-0.05q0.04-0.06 0.07-0.12c0.01-0.02 0.01-0.01 0.02-0.04q0.03-0.07 0.07-0.14l0.05-0.13c0-0.02 0 0 0.01-0.02q0-0.02 0.01-0.04c0-0.02 0.01-0.01 0.01-0.04 0.01-0.04 0.02-0.04 0.03-0.08 0.01-0.04 0.02-0.03 0.02-0.08 0.01-0.04 0.02-0.04 0.02-0.09q0.01-0.02 0.01-0.04l0.04-0.13c0-0.07 0.01-0.08 0.02-0.14q0.02-0.06 0.02-0.13c0-0.08 0.02-0.12 0.02-0.19 0-0.1 0.01-0.46 0-0.53 0-0.02 0-0.01-0.01-0.04q0-0.03 0-0.05l-0.02-0.14c-0.01-0.04-0.03-0.19-0.04-0.22-0.01-0.02-0.01-0.01-0.01-0.04l-0.07-0.2q0-0.02-0.01-0.04l-0.03-0.07q-0.01-0.02-0.01-0.04l-0.04-0.07q-0.01-0.03-0.03-0.07l-0.04-0.07q-0.04-0.09-0.1-0.16-0.02-0.01-0.03-0.03l-0.09-0.11-0.27-0.18-0.12-0.06q-0.01-0.01-0.02-0.01-0.02-0.01-0.06-0.02c-0.08 0-0.1-0.02-0.19-0.02-0.04 0.01-0.16 0.02-0.19 0.03-0.02 0.01 0 0.01-0.03 0.02q-0.02 0-0.05 0.01-0.01 0-0.04 0.01c-0.03 0.01-0.01 0-0.04 0.01q0 0.01-0.01 0.01c-0.03 0.01-0.02 0.02-0.05 0.03q-0.04 0.02-0.07 0.04l-0.3 0.22q-0.07 0.08-0.13 0.16-0.01 0.01-0.02 0.01l-0.01 0.02q0 0.01-0.01 0.01c-0.03 0.04-0.03 0.03-0.07 0.09l-0.02 0.03c-0.02 0.02-0.01 0.01-0.02 0.03-0.02 0.04-0.05 0.06-0.08 0.13q-0.01 0.02-0.02 0.04l-0.03 0.06c-0.01 0.03-0.01 0.02-0.02 0.04l-0.1 0.22c0 0.03 0 0.01-0.01 0.03q-0.01 0.02-0.02 0.04c-0.01 0.03-0.01 0-0.01 0.04l-0.05 0.16q-0.01 0.02-0.02 0.04l-0.02 0.08q0 0.05-0.01 0.1-0.01 0.04-0.02 0.08c-0.01 0.05-0.01 0.04-0.02 0.1q0 0.03-0.01 0.08-0.01 0.05-0.01 0.1c0 0.07-0.02 0.09-0.02 0.19zm-249.25 42.66c0.14 5.76 1.1 7.67 2.58 8.19 1.25 0.44 2.65 0.52 3.84 0.52 0.81 0 1.25 0.14 1.25 0.59 0 0.59-0.66 0.74-1.7 0.74-4.79 0-7.75-0.23-9.16-0.23-0.66 0-4.13 0.23-7.97 0.23-0.96 0-1.62-0.08-1.62-0.74 0-0.45 0.44-0.59 1.18-0.59 0.96 0 2.29-0.08 3.32-0.37 1.92-0.59 2.21-2.73 2.29-9.15l0.66-43.47c0-1.47 0.22-2.51 0.96-2.51 0.81 0 1.48 0.96 2.74 2.29 0.89 0.96 12.1 12.77 22.87 23.47 5.01 5.02 14.96 15.64 16.22 16.82h0.37l-0.74-33.13c-0.07-4.5-0.74-5.9-2.51-6.64-1.09-0.44-2.87-0.44-3.9-0.44-0.88 0-1.18-0.23-1.18-0.67 0-0.59 0.81-0.66 1.92-0.66 3.82 0 7.37 0.22 8.92 0.22 0.81 0 3.61-0.22 7.23-0.22 0.96 0 1.84 0.07 1.84 0.66 0 0.44-0.59 0.67-1.47 0.67-0.74 0-1.33 0-2.22 0.22-2.06 0.59-2.65 2.14-2.73 6.27l-0.81 46.56c0 1.63-0.29 2.29-0.96 2.29-0.81 0-1.7-0.81-2.51-1.62-4.63-4.43-14.08-14.1-21.75-21.7-8.04-7.97-16.23-16.97-17.55-18.37h-0.23zm202.34-23.2c0-8.9 0-10.55-0.07-12.41-0.13-2-0.75-2.69-2.06-3.11-0.69-0.2-1.45-0.27-2.21-0.27-0.62 0-0.97-0.14-0.97-0.69 0-0.34 0.49-0.48 1.45-0.48 2.28 0 6.41 0.14 8.14 0.14 1.51 0 5.44-0.14 7.79-0.14 0.76 0 1.24 0.14 1.24 0.48 0 0.55-0.34 0.69-0.96 0.69-0.63 0-1.11 0.07-1.8 0.21-1.65 0.27-2.14 1.1-2.27 3.17-0.14 1.86-0.14 3.51-0.14 12.41v10.34c0 5.65 0 10.34 0.27 12.82 0.21 1.59 0.63 2.49 2.42 2.76 0.83 0.14 2.2 0.21 3.1 0.21 0.69 0 0.97 0.34 0.97 0.62 0 0.41-0.49 0.62-1.18 0.62-4 0-8.13-0.21-9.79-0.21-1.38 0-5.51 0.21-7.93 0.21q-0.79 0-1.05-0.3c-0.16 0.23-0.53 0.3-1.08 0.3h-5.79c-3.38 0-5.04-0.34-6.62-1.17-2.62-1.31-4.9-4.07-8.28-8.62-2.41-3.17-4.96-7.1-5.72-8-0.34-0.34-0.69-0.41-1.1-0.41l-5.45-0.14c-0.28 0-0.48 0.14-0.48 0.48v0.83c0 5.45 0.07 10 0.34 12.48 0.21 1.72 0.48 2.83 2.35 3.1 0.89 0.14 2.2 0.21 2.96 0.21 0.48 0 0.76 0.34 0.76 0.62 0 0.41-0.48 0.62-1.24 0.62-3.52 0-8.55-0.21-9.45-0.21-1.17 0-5.03 0.21-7.44 0.21-0.76 0-1.18-0.21-1.18-0.62 0-0.28 0.21-0.62 0.97-0.62 0.9 0 1.59-0.07 2.14-0.21 1.24-0.27 1.58-1.38 1.79-3.1 0.28-2.48 0.28-7.1 0.28-12.48v-10.34c0-8.9 0-10.55-0.07-12.41-0.14-2-0.69-2.62-2.62-3.17-0.49-0.14-1.52-0.21-2.42-0.21-0.62 0-1.03-0.21-1.03-0.62 0-0.41 0.48-0.55 1.38-0.55 3.17 0 7.03 0.14 8.27 0.14 2.07 0 7.59-0.14 9.45-0.14 3.86 0 8.27 0.34 11.51 2.48 1.73 1.17 4.28 4.14 4.28 8.07 0 4.34-2.49 8.2-8.42 12.96 5.38 6.62 9.66 11.93 13.31 15.58 3.38 3.38 5.52 3.65 6.48 3.86 0.62 0.14 0.97 0.14 1.45 0.14 0.31 0 0.53 0.14 0.65 0.31 0.13-0.17 0.39-0.31 0.87-0.31 0.89 0 1.58-0.07 2.13-0.21 1.25-0.27 1.59-1.1 1.8-2.82 0.27-2.42 0.27-7.11 0.27-12.76zm-39.57 4.55c0 0.62 0.14 0.83 0.55 1.04 1.31 0.41 3.1 0.55 4.62 0.55 2.41 0 3.24-0.21 4.27-0.97 1.86-1.31 3.93-3.86 3.93-8.69 0-8.27-5.65-10.41-9.24-10.41-1.51 0-2.96 0.07-3.58 0.21-0.41 0.14-0.55 0.34-0.55 0.83zm-43.3-17.91l-9.03 0.21c-3.52 0.07-4.97 0.48-5.86 1.79-0.63 0.83-0.9 1.59-1.04 2-0.14 0.49-0.27 0.76-0.69 0.76-0.41 0-0.55-0.34-0.55-0.96 0-0.97 1.17-6.63 1.31-7.13 0.14-0.76 0.34-1.1 0.69-1.1 0.48 0 1.1 0.48 2.62 0.7 1.79 0.21 4.07 0.27 6.07 0.27h24.59c1.93 0 3.24-0.13 4.14-0.28 0.96-0.14 1.45-0.28 1.66-0.28 0.42 0 0.48 0.35 0.48 1.24 0 1.24-0.13 5.59-0.13 7.13-0.07 0.62-0.21 0.96-0.56 0.96-0.49 0-0.63-0.27-0.7-1.17l-0.07-0.62c-0.13-1.52-1.72-3.31-7.15-3.38l-7.65-0.14v23.71c0 5.38 0.07 10 0.35 12.55 0.21 1.64 0.55 2.75 2.33 3.02 0.83 0.14 2.21 0.21 3.1 0.21 0.69 0 0.97 0.34 0.97 0.62 0 0.41-0.48 0.62-1.17 0.62-4 0-8.06-0.21-9.78-0.21-1.38 0-5.52 0.21-7.93 0.21-0.76 0-1.17-0.21-1.17-0.62 0-0.28 0.2-0.62 0.96-0.62 0.9 0 1.66-0.07 2.14-0.21 1.24-0.27 1.59-1.38 1.79-3.09 0.28-2.48 0.28-7.1 0.28-12.48zm-63.09 13.35c0-8.89 0.07-10.55-0.07-12.41-0.14-2.07-0.69-2.62-2.62-3.17-0.48-0.14-1.51-0.21-2.34-0.21q-1.04 0-1.04-0.62c0-0.41 0.42-0.55 1.31-0.55 3.24 0 7.31 0.14 9.1 0.14 1.52 0 5.59-0.14 7.8-0.14 0.89 0 1.31 0.14 1.31 0.55 0 0.42-0.35 0.62-0.97 0.62-0.69 0-1.03 0.07-1.79 0.21-1.59 0.28-2.07 1.1-2.21 3.17-0.14 1.86-0.14 3.52-0.14 12.41v8.21c0 8.55 1.66 11.86 4.62 14.2 2.69 2.14 5.59 2.35 7.66 2.35 2.62 0 5.72-0.76 8.13-3.11 3.38-3.17 3.52-8.27 3.52-14.27v-7.38c0-8.89-0.07-10.55-0.14-12.41-0.14-2-0.62-2.62-2.55-3.17-0.48-0.14-1.52-0.21-2.21-0.21q-1.03 0-1.03-0.62c0-0.41 0.41-0.55 1.24-0.55 3.1 0 7.17 0.14 7.24 0.14 0.69 0 4.76-0.14 7.1-0.14 0.83 0 1.24 0.14 1.24 0.55q0 0.62-1.03 0.62c-0.69 0-1.04 0.07-1.79 0.21-1.66 0.28-2.07 1.1-2.21 3.17-0.07 1.86-0.14 3.52-0.14 12.41v6.28c0 6.55-0.69 13.44-5.79 17.65-4.28 3.58-8.89 4.2-12.82 4.2-3.18 0-9.45-0.13-13.86-4-3.11-2.68-5.52-7.03-5.52-15.51zm-6.47 30.75h168.97l-1.38 3.42h-167.59z"/>
		</clipPath>
		<linearGradient id="g1" x2="1" gradientUnits="userSpaceOnUse" gradientTransform="matrix(58.98,83.29,-106.808,75.633,183.028,-15.119)">
			<stop offset="0" stop-color="#2e8ec2"/>
			<stop offset="1" stop-color="#050405"/>
		</linearGradient>
	</defs>
	<style>
		.s0 { fill: url(#g1) } 
	</style>
	<g id="&lt;Clip Group&gt;" clip-path="url(#cp1)">
		<path id="&lt;Path&gt;" class="s0" d="m14.5 66.4h361.3v-57.9h-361.3z"/>
	</g>
</svg>